<?xml version="1.0" encoding="UTF-8"?>
<!-- Created by Vectric (http://www.vectric.com/) -->
<svg width="600.00000000mm" height="600.00000000mm" viewBox="-600.00000000 -600.00000000 600.00000000 600.00000000" id="svg2" version="1.1" xmlns="http://www.w3.org/2000/svg" xmlns:xlink="http://www.w3.org/1999/xlink" xmlns:inkscape="http://www.inkscape.org/namespaces/inkscape">
    <g inkscape:groupmode="layer" id="85667243-1302-4a85-b3ac-c7bf39b332ec" inkscape:label="Toolpath Previews" style="stroke:#000000;"/>
    <g inkscape:groupmode="layer" id="b1a0aeab-2837-4c87-9c04-67ca4b6b6d89" inkscape:label="Frame" style="stroke:#000000;">
        <path style="fill:none;stroke-width:0.280000;stroke-linecap:round;stroke-linejoin:round;stroke-opacity:1;stroke:#000000;" d="M 0.000000,-600.000000 L -625.000000,-600.000000 L -625.000000,25.000000 L 0.000000,25.000000 L 0.000000,-600.000000 "/>
    </g>
    <g inkscape:groupmode="layer" id="52d6ba38-5dc0-4858-b5fe-644e52b2fe4e" inkscape:label="Holes" style="stroke:#000000;">
        <path style="fill:none;stroke-width:0.280000;stroke-linecap:round;stroke-linejoin:round;stroke-opacity:1;stroke:#000000;" d="M -378.000000,-218.999814 C -379.656854,-218.999814 -381.000000,-220.342960 -381.000000,-221.999816 C -381.000000,-223.656671 -379.656854,-224.999817 -378.000000,-224.999817 C -376.343146,-224.999817 -375.000000,-223.656671 -375.000000,-221.999816 C -375.000000,-220.342960 -376.343146,-218.999814 -378.000000,-218.999814 "/>
        <path style="fill:none;stroke-width:0.280000;stroke-linecap:round;stroke-linejoin:round;stroke-opacity:1;stroke:#000000;" d="M -198.000000,-218.999814 C -199.656854,-218.999814 -201.000000,-220.342960 -201.000000,-221.999816 C -201.000000,-223.656671 -199.656854,-224.999817 -198.000000,-224.999817 C -196.343146,-224.999817 -195.000000,-223.656671 -195.000000,-221.999816 C -195.000000,-220.342960 -196.343146,-218.999814 -198.000000,-218.999814 "/>
        <path style="fill:none;stroke-width:0.280000;stroke-linecap:round;stroke-linejoin:round;stroke-opacity:1;stroke:#000000;" d="M -18.000000,-218.999814 C -19.656854,-218.999814 -21.000000,-220.342960 -21.000000,-221.999816 C -21.000000,-223.656671 -19.656854,-224.999817 -18.000000,-224.999817 C -16.343146,-224.999817 -15.000000,-223.656671 -15.000000,-221.999816 C -15.000000,-220.342960 -16.343146,-218.999814 -18.000000,-218.999814 "/>
        <path style="fill:none;stroke-width:0.280000;stroke-linecap:round;stroke-linejoin:round;stroke-opacity:1;stroke:#000000;" d="M -378.000000,-398.999902 C -379.656854,-398.999902 -381.000000,-400.343048 -381.000000,-401.999903 C -381.000000,-403.656758 -379.656854,-404.999905 -378.000000,-404.999905 C -376.343146,-404.999905 -375.000000,-403.656758 -375.000000,-401.999903 C -375.000000,-400.343048 -376.343146,-398.999902 -378.000000,-398.999902 "/>
        <path style="fill:none;stroke-width:0.280000;stroke-linecap:round;stroke-linejoin:round;stroke-opacity:1;stroke:#000000;" d="M -198.000000,-398.999902 C -199.656854,-398.999902 -201.000000,-400.343048 -201.000000,-401.999903 C -201.000000,-403.656758 -199.656854,-404.999905 -198.000000,-404.999905 C -196.343146,-404.999905 -195.000000,-403.656758 -195.000000,-401.999903 C -195.000000,-400.343048 -196.343146,-398.999902 -198.000000,-398.999902 "/>
        <path style="fill:none;stroke-width:0.280000;stroke-linecap:round;stroke-linejoin:round;stroke-opacity:1;stroke:#000000;" d="M -18.000000,-398.999902 C -19.656854,-398.999902 -21.000000,-400.343048 -21.000000,-401.999903 C -21.000000,-403.656758 -19.656854,-404.999905 -18.000000,-404.999905 C -16.343146,-404.999905 -15.000000,-403.656758 -15.000000,-401.999903 C -15.000000,-400.343048 -16.343146,-398.999902 -18.000000,-398.999902 "/>
        <path style="fill:none;stroke-width:0.280000;stroke-linecap:round;stroke-linejoin:round;stroke-opacity:1;stroke:#000000;" d="M -378.000000,-578.999990 C -379.656854,-578.999990 -381.000000,-580.343136 -381.000000,-581.999991 C -381.000000,-583.656846 -379.656854,-584.999993 -378.000000,-584.999993 C -376.343146,-584.999993 -375.000000,-583.656846 -375.000000,-581.999991 C -375.000000,-580.343136 -376.343146,-578.999990 -378.000000,-578.999990 "/>
        <path style="fill:none;stroke-width:0.280000;stroke-linecap:round;stroke-linejoin:round;stroke-opacity:1;stroke:#000000;" d="M -198.000000,-578.999990 C -199.656854,-578.999990 -201.000000,-580.343136 -201.000000,-581.999991 C -201.000000,-583.656846 -199.656854,-584.999993 -198.000000,-584.999993 C -196.343146,-584.999993 -195.000000,-583.656846 -195.000000,-581.999991 C -195.000000,-580.343136 -196.343146,-578.999990 -198.000000,-578.999990 "/>
        <path style="fill:none;stroke-width:0.280000;stroke-linecap:round;stroke-linejoin:round;stroke-opacity:1;stroke:#000000;" d="M -18.000000,-578.999990 C -19.656854,-578.999990 -21.000000,-580.343136 -21.000000,-581.999991 C -21.000000,-583.656846 -19.656854,-584.999993 -18.000000,-584.999993 C -16.343146,-584.999993 -15.000000,-583.656846 -15.000000,-581.999991 C -15.000000,-580.343136 -16.343146,-578.999990 -18.000000,-578.999990 "/>
    </g>
    <g inkscape:groupmode="layer" id="ae4f2b6e-5a62-4ae9-b8d8-ca8815fc216e" inkscape:label="Top" style="stroke:#000000;">
        <path style="fill:none;stroke-width:0.280000;stroke-linecap:round;stroke-linejoin:round;stroke-opacity:1;stroke:#000000;" d="M -546.000061,-593.999997 L -6.000061,-593.999997 L -6.000061,-53.999734 L -546.000061,-53.999734 L -546.000061,-593.999997 "/>
    </g>
    <g inkscape:groupmode="layer" id="2065dd65-55a3-43c1-bd53-f88ec0463c67" inkscape:label="Bottom" style="stroke:#000000;">
        <path style="fill:none;stroke-width:0.280000;stroke-linecap:round;stroke-linejoin:round;stroke-opacity:1;stroke:#000000;" d="M -0.031982,-582.927970 C -0.529450,-592.490902 -8.424156,-599.991944 -18.000000,-600.000000 L -59.029418,-600.000000 C -62.212020,-600.000000 -65.264282,-598.735777 -67.514710,-596.485288 L -80.485290,-583.514702 C -82.735718,-581.264273 -84.000000,-578.212025 -84.000000,-575.029406 L -84.000000,-557.999980 C -83.992554,-551.632666 -86.519074,-545.524143 -91.021972,-541.022309 C -95.524200,-536.519745 -101.632660,-533.993194 -108.000000,-533.999968 L -156.000000,-533.999968 C -162.366532,-533.995696 -168.473542,-536.522797 -172.975524,-541.024447 C -177.477172,-545.526401 -180.004272,-551.633460 -180.000000,-557.999980 L -180.000000,-581.999991 C -180.012360,-591.935970 -188.063996,-599.987670 -198.000000,-600.000000 L -222.000000,-600.000000 C -231.936614,-599.989136 -239.989106,-591.936580 -240.000000,-581.999991 L -240.000000,-557.999980 C -239.996032,-551.633460 -242.523194,-545.526523 -247.024780,-541.024507 C -251.526550,-536.522735 -257.633514,-533.995574 -264.000000,-533.999968 L -336.000000,-533.999968 C -342.366394,-533.996366 -348.473084,-536.523651 -352.975098,-541.025057 C -357.476746,-545.526829 -360.003968,-551.633582 -360.000000,-557.999980 L -360.000000,-581.952017 C -359.995178,-586.735834 -361.896392,-591.324458 -365.283142,-594.702999 C -368.670532,-598.080931 -373.264252,-599.969910 -378.048004,-599.952026 L -401.951996,-599.903992 C -411.875794,-599.889770 -419.914582,-591.843746 -419.919982,-581.919973 L -419.951996,-557.952005 C -419.957366,-551.592872 -422.489196,-545.496433 -426.990296,-541.004305 C -431.491394,-536.512237 -437.592896,-533.992644 -443.952026,-533.999968 L -526.000000,-533.999968 C -528.124816,-534.010344 -530.165528,-533.170439 -531.667480,-531.667387 C -533.170654,-530.165554 -534.010498,-528.124781 -534.000000,-525.999964 L -534.000000,-509.999956 C -533.995850,-503.633467 -536.523010,-497.526500 -541.024658,-493.024606 C -545.526550,-488.522956 -551.633544,-485.995824 -558.000000,-485.999944 L -582.000000,-485.999944 C -591.936646,-485.989110 -599.989136,-477.936586 -600.000000,-467.999936 L -600.000000,-443.999924 C -599.989136,-434.063305 -591.936646,-426.010779 -582.000000,-425.999915 L -558.000000,-425.999915 C -551.633544,-426.004065 -545.526612,-423.476934 -541.024658,-418.975284 C -536.523010,-414.473359 -533.995850,-408.366392 -534.000000,-401.999903 L -534.000000,-328.031879 C -533.999878,-321.661150 -536.533082,-315.551833 -541.041198,-311.050427 C -545.548584,-306.548289 -551.661254,-304.023262 -558.031982,-304.031868 L -581.968018,-304.063852 C -586.747986,-304.074166 -591.335510,-302.181893 -594.718200,-298.804693 C -598.101440,-295.428013 -600.001832,-290.843813 -600.000000,-286.063843 L -600.000000,-263.999836 C -599.989136,-254.063201 -591.936646,-246.010675 -582.000000,-245.999827 L -558.000000,-245.999827 C -551.633484,-246.003993 -545.526550,-243.476832 -541.024658,-238.975166 C -536.523010,-234.473256 -533.995850,-228.366305 -534.000000,-221.999816 L -534.000000,-149.023782 C -534.007020,-135.843035 -544.643554,-125.135006 -557.823974,-125.039768 L -582.127990,-124.863766 C -592.026368,-124.810758 -600.017578,-116.762260 -600.000000,-106.863757 L -600.000000,-83.999748 C -599.989136,-74.063113 -591.936646,-66.010573 -582.000000,-65.999739 L -558.000000,-65.999739 C -551.633484,-66.003905 -545.526550,-63.476754 -541.024658,-58.975078 C -536.523010,-54.473158 -533.995850,-48.366213 -534.000000,-41.999728 L -534.000000,-17.999716 C -533.989136,-8.063079 -525.936646,-0.010543 -516.000000,0.000293 L -492.031982,0.000293 C -487.260132,0.002689 -482.682800,-1.890772 -479.307068,-5.263488 C -475.931396,-8.636201 -474.033874,-13.211856 -474.031982,-17.983716 L -474.015992,-42.015726 C -474.009582,-55.265328 -463.265564,-66.002165 -450.015992,-65.999739 L -378.000000,-65.999739 C -371.633514,-66.003897 -365.526550,-63.476750 -361.024658,-58.975078 C -356.522980,-54.473172 -353.995820,-48.366225 -354.000000,-41.999728 L -354.000000,-17.999716 C -353.989166,-8.063079 -345.936646,-0.010543 -336.000000,0.000293 L -312.032012,0.000293 C -307.260162,0.002697 -302.682800,-1.890760 -299.307098,-5.263476 C -295.931366,-8.636191 -294.033844,-13.211850 -294.032012,-17.983716 L -294.015992,-42.015726 C -294.009614,-55.265328 -283.265594,-66.002181 -270.015992,-65.999739 L -198.000000,-65.999739 C -191.633514,-66.003897 -185.526580,-63.476750 -181.024658,-58.975090 C -176.522980,-54.473180 -173.995820,-48.366229 -174.000000,-41.999728 L -174.000000,-17.999716 C -173.989166,-8.063079 -165.936630,-0.010549 -156.000000,0.000293 L -131.983994,0.000293 C -122.047852,-0.011735 -113.996018,-8.063571 -113.983994,-17.999716 L -114.000000,-41.967726 C -114.005890,-48.331937 -111.481324,-54.437394 -106.982514,-58.938934 C -102.483994,-63.440778 -96.380204,-65.969419 -90.015992,-65.967741 L -83.984008,-65.983741 C -79.212142,-65.985579 -74.636490,-67.883102 -71.263764,-71.258820 C -67.891052,-74.634540 -65.997590,-79.211882 -66.000000,-83.983750 L -66.000000,-155.999783 C -66.004180,-162.366286 -63.477020,-168.473239 -58.975342,-172.975150 C -54.473434,-177.476800 -48.366486,-180.003945 -42.000000,-179.999795 L -18.000000,-179.999795 C -8.063332,-180.010537 -0.010758,-188.063123 0.000000,-197.999804 L 0.000000,-221.999816 C -0.010758,-231.936496 -8.063332,-239.989082 -18.000000,-239.999824 L -42.000000,-239.999824 C -48.366364,-239.995872 -54.473130,-242.523096 -58.974914,-247.024716 C -63.476394,-251.526700 -66.003646,-257.633439 -66.000000,-263.999836 L -66.000000,-335.999871 C -66.004334,-342.366330 -63.477204,-348.473297 -58.975464,-352.975099 C -54.473420,-357.476658 -48.366500,-360.003819 -42.000000,-359.999883 L -18.000000,-359.999883 C -8.063386,-360.010747 -0.010864,-368.063273 0.000000,-377.999892 L 0.000000,-401.999903 C -0.012352,-411.935912 -8.063996,-419.987552 -18.000000,-419.999912 L -42.000000,-419.999912 C -48.366516,-419.995640 -54.473510,-422.522741 -58.975464,-427.024392 C -63.477112,-431.526376 -66.004226,-437.633405 -66.000000,-443.999924 L -66.000000,-491.999947 C -66.003464,-498.366374 -63.476226,-504.473097 -58.974854,-508.975176 C -54.473176,-513.476886 -48.366364,-516.004109 -42.000000,-515.999959 L -22.970582,-515.999959 C -19.787972,-515.999959 -16.735710,-517.264182 -14.485290,-519.514671 L -3.514710,-530.485256 C -1.264266,-532.735685 0.000016,-535.787933 0.000000,-538.970552 L 0.000000,-581.999991 L -0.031982,-582.927970 "/>
    </g>
</svg>
