0
SECTION
2
HEADER
9
$INSUNITS
70
4
9
$ACADVER
1
AC1014
9
$HANDSEED
5
FFFF
0
ENDSEC
0
SECTION
2
TABLES
0
TABLE
2
VPORT
5
8
100
AcDbSymbolTable
0
ENDTAB
0
TABLE
2
LTYPE
5
5
100
AcDbSymbolTable
0
LTYPE
5
14
100
AcDbSymbolTableRecord
100
AcDbLinetypeTableRecord
2
BYBLOCK
70
0
0
LTYPE
5
15
100
AcDbSymbolTableRecord
100
AcDbLinetypeTableRecord
2
BYLAYER
70
0
0
ENDTAB
0
TABLE
2
LAYER
5
2
100
AcDbSymbolTable
70
2
0
LAYER
5
50
100
AcDbSymbolTableRecord
100
AcDbLayerTableRecord
2
0
70
0
6
CONTINUOUS
0
ENDTAB
0
TABLE
2
STYLE
5
3
100
AcDbSymbolTable
70
1
0
STYLE
5
11
100
AcDbSymbolTableRecord
100
AcDbTextStyleTableRecord
2
STANDARD
70
0
0
ENDTAB
0
TABLE
2
VIEW
5
6
100
AcDbSymbolTable
70
0
0
ENDTAB
0
TABLE
2
UCS
5
7
100
AcDbSymbolTable
70
0
0
ENDTAB
0
TABLE
2
APPID
5
9
100
AcDbSymbolTable
70
2
0
APPID
5
12
100
AcDbSymbolTableRecord
100
AcDbRegAppTableRecord
2
ACAD
70
0
0
ENDTAB
0
TABLE
2
DIMSTYLE
5
A
100
AcDbSymbolTable
70
1
0
ENDTAB
0
TABLE
2
BLOCK_RECORD
5
1
100
AcDbSymbolTable
70
1
0
BLOCK_RECORD
5
1F
100
AcDbSymbolTableRecord
100
AcDbBlockTableRecord
2
*MODEL_SPACE
0
BLOCK_RECORD
5
1B
100
AcDbSymbolTableRecord
100
AcDbBlockTableRecord
2
*PAPER_SPACE
0
ENDTAB
0
ENDSEC
0
SECTION
2
BLOCKS
0
BLOCK
5
20
100
AcDbEntity
100
AcDbBlockBegin
2
*MODEL_SPACE
0
ENDBLK
5
21
100
AcDbEntity
100
AcDbBlockEnd
0
BLOCK
5
1C
100
AcDbEntity
100
AcDbBlockBegin
2
*PAPER_SPACE
0
ENDBLK
5
1D
100
AcDbEntity
100
AcDbBlockEnd
0
ENDSEC
0
SECTION
2
ENTITIES
0
CIRCLE
5
100
100
AcDbEntity
8
0
100
AcDbCircle
10
285.00000000000307
20
284.99999999999955
30
0
40
3.0499999999999998
210
0
220
-0
230
1
0
LWPOLYLINE
5
101
100
AcDbEntity
8
0
100
AcDbPolyline
90
76
70
1
43
0.0
10
-74.999999907773443
20
300.00000000000011
10
-154.82041793572975
20
300.00000000000011
42
0.19891236737965542
10
-165.42701958831586
20
295.60660174481012
10
-295.60660174480506
20
165.42701958832353
42
0.19891236737966567
10
-299.99999999999528
20
154.82041793573694
10
-299.999999999995
20
139.99999990776305
42
0.41421356237308915
10
-285.0000000922318
20
125.00000000000011
10
-249.99999990778355
20
125.00000000000013
42
-0.4142135623730947
10
-234.99999999999409
20
110.00000009221066
10
-234.99999999999415
20
66.783837932878797
42
-0.1989123673796602
10
-239.39339825518431
20
56.177236280292504
10
-295.60660174433281
20
-0.035967208854987831
42
0.19891236737966259
10
-299.99999999952297
20
-10.642568861441415
10
-299.99999999952274
20
-40.00000009222375
42
0.41421356237309243
10
-285.00000009174647
20
-54.999999999999893
10
-249.99999990781049
20
-54.999999999999893
42
-0.41421356237309503
10
-235.00000000002103
20
-69.999999907789345
10
-235.000000000021
20
-158.07613027900894
42
-0.19891236737966064
10
-239.3933982552112
20
-168.68273193159524
10
-280.10406485597269
20
-209.39339853234918
42
0.66817863791930343
10
-269.49746320338659
20
-235.00000009271173
10
-250.00000000001017
20
-235.00000009271167
42
-0.41421356237309503
10
-235.00000009222194
20
-250.00000000049982
10
-235.00000009222191
20
-269.49746320387709
42
0.66817863791929444
10
-209.39339853185959
20
-280.10406485646337
10
-168.6827319305815
20
-239.39339825519281
42
-0.19891236737965545
10
-158.07613027799545
20
-235.00000000000284
10
-69.999999907762003
20
-235.00000000000284
42
-0.41421356237309503
10
-54.999999999985761
20
-249.99999990777908
10
-54.999999999985761
20
-285.00000009223498
42
0.41421356237309576
10
-40.000000092209483
20
-300.00000000001125
10
-10.642568860931172
20
-300.00000000001114
42
0.19891236737965526
10
-0.035967208345132208
20
-295.60660174482115
10
56.177236281286945
20
-239.39339825519011
42
-0.19891236737965581
10
66.783837933873031
20
-235.00000000000011
10
110.000000092238
20
-235.00000000000011
42
-0.41421356237309503
10
125.00000000001424
20
-249.99999990777636
10
125.00000000001423
20
-285.00000009222384
42
0.41421356237309437
10
139.99999990779045
20
-300.00000000000011
10
154.82041793673315
20
-300.00000000000011
42
0.19891236737965604
10
165.42701958931926
20
-295.60660174481018
10
295.60660174482399
20
-165.42701958930806
42
0.19891236737966
10
300.00000000001415
20
-154.82041793672181
10
300.00000000001438
20
-74.999999907776669
42
0.41421356237309592
10
285.00000009223817
20
-60.000000000000384
10
249.99999990777872
20
-60.000000000000391
42
-0.41421356237309503
10
235.0000000000025
20
-45.000000092224148
10
235.0000000000025
20
-3.1442276270854332
42
-0.19891236737966053
10
239.39339825519266
20
7.4623740255008473
10
295.60660174482115
20
63.675577515128204
42
0.19891236737967091
10
300.00000000001131
20
74.282179167715086
10
300.00000000001012
20
105.00000009222396
42
0.4142135623730836
10
285.0000000922339
20
119.9999999999996
10
249.99999990777866
20
119.9999999999996
42
-0.41421356237309609
10
235.00000000000242
20
134.9999999077759
10
235.00000000000244
20
158.07611848344584
42
-0.19891236737965973
10
239.39339825519266
20
168.68272013603206
10
295.60660174481234
20
224.89592362565062
42
0.19891236737965753
10
300.0000000000025
20
235.50252527823673
10
300.00000000001626
20
284.99999999998624
42
0.41421356237309781
10
285.00000000000307
20
299.99999999999955
10
235.50252531744829
20
299.99999999999966
42
0.19891236737965604
10
224.89592359965013
20
295.60660171779796
10
168.68272016405328
20
239.39339828220227
42
-0.19891236737963677
10
158.07611844625623
20
235.0000000000006
10
135.00000000000392
20
234.99999999999898
42
-0.41421356237311585
10
120.00000000000286
20
249.99999999999898
10
120.00000000000287
20
284.99999999999966
42
0.41421356237309503
10
105.00000000000287
20
299.99999999999966
10
74.282179206913682
20
299.99999999999966
42
0.19891236737965529
10
63.675577489115575
20
295.60660171779796
10
7.4623740535073306
20
239.39339828219079
42
-0.19891236737965476
10
-3.144227664290514
20
234.9999999999892
10
-45.000000092220759
20
234.99999999998909
42
-0.41421356237309592
10
-59.999999999997122
20
249.99999990776541
10
-59.999999999997122
20
285.00000009222379
42
0.41421356237309503
0
CIRCLE
5
102
100
AcDbEntity
8
0
100
AcDbCircle
10
105.00000000000306
20
284.99999999999955
30
0
40
3.0499999999999998
210
0
220
0
230
1
0
CIRCLE
5
103
100
AcDbEntity
8
0
100
AcDbCircle
10
-74.999999999996945
20
284.99999999999955
30
0
40
3.0499999999999998
210
0
220
0
230
1
0
CIRCLE
5
104
100
AcDbEntity
8
0
100
AcDbCircle
10
285.00000000000307
20
104.99999999999957
30
0
40
3.0499999999999998
210
0
220
0
230
1
0
CIRCLE
5
105
100
AcDbEntity
8
0
100
AcDbCircle
10
105.00000000000306
20
104.99999999999957
30
0
40
3.0499999999999998
210
0
220
0
230
1
0
CIRCLE
5
106
100
AcDbEntity
8
0
100
AcDbCircle
10
-74.999999999996945
20
104.99999999999957
30
0
40
3.0499999999999998
210
0
220
0
230
1
0
CIRCLE
5
107
100
AcDbEntity
8
0
100
AcDbCircle
10
285.00000000000307
20
-75.000000000000426
30
0
40
3.0499999999999998
210
0
220
0
230
1
0
CIRCLE
5
108
100
AcDbEntity
8
0
100
AcDbCircle
10
105.00000000000306
20
-75.000000000000426
30
0
40
3.0499999999999998
210
0
220
0
230
1
0
CIRCLE
5
109
100
AcDbEntity
8
0
100
AcDbCircle
10
-74.999999999996945
20
-75.000000000000426
30
0
40
3.0499999999999998
210
0
220
0
230
1
0
LINE
5
110
100
AcDbEntity
8
0
100
AcDbLine
10
-250.00000000001012
20
-250.00000000049988
30
0
11
284.99999999998988
21
284.99999999999955
31
0
0
LWPOLYLINE
5
111
100
AcDbEntity
8
0
100
AcDbPolyline
90
4
70
1
43
0.0
10
284.99999999998988
20
284.99999999999955
10
-285.00000000001012
20
284.99999999999955
10
-285.00000000001012
20
-285.00000000000045
10
284.99999999998988
20
-285.00000000000045
0
ENDSEC
0
SECTION
2
OBJECTS
0
DICTIONARY
5
C
100
AcDbDictionary
3
ACAD_GROUP
350
D
3
ACAD_MLINESTYLE
350
17
0
DICTIONARY
5
D
100
AcDbDictionary
0
DICTIONARY
5
1A
330
C
100
AcDbDictionary
0
DICTIONARY
5
17
100
AcDbDictionary
0
ENDSEC
0
EOF
