solid ASCII
  facet normal -7.071068e-01 -0.000000e+00 -7.071068e-01
    outer loop
      vertex   -8.625000e+01 1.000000e+00 7.500000e+00
      vertex   -8.375000e+01 1.000000e+00 5.000000e+00
      vertex   -8.625000e+01 -1.000000e+00 7.500000e+00
    endloop
  endfacet
  facet normal -7.071068e-01 0.000000e+00 -7.071068e-01
    outer loop
      vertex   -8.625000e+01 -1.000000e+00 7.500000e+00
      vertex   -8.375000e+01 1.000000e+00 5.000000e+00
      vertex   -8.375000e+01 -1.000000e+00 5.000000e+00
    endloop
  endfacet
  facet normal -1.000000e+00 0.000000e+00 0.000000e+00
    outer loop
      vertex   -8.625000e+01 -1.000000e+00 7.500000e+00
      vertex   -8.625000e+01 -1.000000e+00 4.250000e+01
      vertex   -8.625000e+01 1.000000e+00 7.500000e+00
    endloop
  endfacet
  facet normal -1.000000e+00 0.000000e+00 0.000000e+00
    outer loop
      vertex   -8.625000e+01 1.000000e+00 7.500000e+00
      vertex   -8.625000e+01 -1.000000e+00 4.250000e+01
      vertex   -8.625000e+01 1.000000e+00 4.250000e+01
    endloop
  endfacet
  facet normal 0.000000e+00 -1.000000e+00 0.000000e+00
    outer loop
      vertex   -8.375000e+01 -1.000000e+00 5.000000e+00
      vertex   -8.375000e+01 -1.000000e+00 4.500000e+01
      vertex   -8.625000e+01 -1.000000e+00 7.500000e+00
    endloop
  endfacet
  facet normal 0.000000e+00 -1.000000e+00 0.000000e+00
    outer loop
      vertex   -8.625000e+01 -1.000000e+00 7.500000e+00
      vertex   -8.375000e+01 -1.000000e+00 4.500000e+01
      vertex   -8.625000e+01 -1.000000e+00 4.250000e+01
    endloop
  endfacet
  facet normal -7.071068e-01 0.000000e+00 7.071068e-01
    outer loop
      vertex   -8.375000e+01 1.000000e+00 4.500000e+01
      vertex   -8.625000e+01 1.000000e+00 4.250000e+01
      vertex   -8.375000e+01 -1.000000e+00 4.500000e+01
    endloop
  endfacet
  facet normal -7.071068e-01 0.000000e+00 7.071068e-01
    outer loop
      vertex   -8.375000e+01 -1.000000e+00 4.500000e+01
      vertex   -8.625000e+01 1.000000e+00 4.250000e+01
      vertex   -8.625000e+01 -1.000000e+00 4.250000e+01
    endloop
  endfacet
  facet normal 7.071068e-01 0.000000e+00 -7.071068e-01
    outer loop
      vertex   8.375000e+01 1.000000e+00 5.000000e+00
      vertex   8.625000e+01 1.000000e+00 7.500000e+00
      vertex   8.375000e+01 -1.000000e+00 5.000000e+00
    endloop
  endfacet
  facet normal 7.071068e-01 0.000000e+00 -7.071068e-01
    outer loop
      vertex   8.375000e+01 -1.000000e+00 5.000000e+00
      vertex   8.625000e+01 1.000000e+00 7.500000e+00
      vertex   8.625000e+01 -1.000000e+00 7.500000e+00
    endloop
  endfacet
  facet normal -0.000000e+00 -1.000000e+00 0.000000e+00
    outer loop
      vertex   8.625000e+01 -1.000000e+00 7.500000e+00
      vertex   8.625000e+01 -1.000000e+00 4.250000e+01
      vertex   8.375000e+01 -1.000000e+00 5.000000e+00
    endloop
  endfacet
  facet normal 0.000000e+00 -1.000000e+00 0.000000e+00
    outer loop
      vertex   8.375000e+01 -1.000000e+00 5.000000e+00
      vertex   8.625000e+01 -1.000000e+00 4.250000e+01
      vertex   8.375000e+01 -1.000000e+00 4.500000e+01
    endloop
  endfacet
  facet normal 1.000000e+00 0.000000e+00 -0.000000e+00
    outer loop
      vertex   8.625000e+01 1.000000e+00 7.500000e+00
      vertex   8.625000e+01 1.000000e+00 4.250000e+01
      vertex   8.625000e+01 -1.000000e+00 7.500000e+00
    endloop
  endfacet
  facet normal 1.000000e+00 0.000000e+00 0.000000e+00
    outer loop
      vertex   8.625000e+01 -1.000000e+00 7.500000e+00
      vertex   8.625000e+01 1.000000e+00 4.250000e+01
      vertex   8.625000e+01 -1.000000e+00 4.250000e+01
    endloop
  endfacet
  facet normal 7.071068e-01 0.000000e+00 7.071068e-01
    outer loop
      vertex   8.625000e+01 1.000000e+00 4.250000e+01
      vertex   8.375000e+01 1.000000e+00 4.500000e+01
      vertex   8.625000e+01 -1.000000e+00 4.250000e+01
    endloop
  endfacet
  facet normal 7.071068e-01 0.000000e+00 7.071068e-01
    outer loop
      vertex   8.625000e+01 -1.000000e+00 4.250000e+01
      vertex   8.375000e+01 1.000000e+00 4.500000e+01
      vertex   8.375000e+01 -1.000000e+00 4.500000e+01
    endloop
  endfacet
  facet normal -0.000000e+00 1.000000e+00 0.000000e+00
    outer loop
      vertex   -8.625000e+01 1.000000e+00 7.500000e+00
      vertex   -8.625000e+01 1.000000e+00 4.250000e+01
      vertex   -8.375000e+01 1.000000e+00 5.000000e+00
    endloop
  endfacet
  facet normal 0.000000e+00 1.000000e+00 -0.000000e+00
    outer loop
      vertex   -8.375000e+01 1.000000e+00 5.000000e+00
      vertex   -8.625000e+01 1.000000e+00 4.250000e+01
      vertex   -8.375000e+01 1.000000e+00 4.500000e+01
    endloop
  endfacet
  facet normal 0.000000e+00 1.000000e+00 0.000000e+00
    outer loop
      vertex   8.375000e+01 1.000000e+00 5.000000e+00
      vertex   8.375000e+01 1.000000e+00 4.500000e+01
      vertex   8.625000e+01 1.000000e+00 7.500000e+00
    endloop
  endfacet
  facet normal 0.000000e+00 1.000000e+00 -0.000000e+00
    outer loop
      vertex   8.625000e+01 1.000000e+00 7.500000e+00
      vertex   8.375000e+01 1.000000e+00 4.500000e+01
      vertex   8.625000e+01 1.000000e+00 4.250000e+01
    endloop
  endfacet
  facet normal 0.000000e+00 -1.000000e+00 0.000000e+00
    outer loop
      vertex   -8.375000e+01 -6.000000e+00 5.000000e+01
      vertex   -8.375000e+01 -6.000000e+00 0.000000e+00
      vertex   8.375000e+01 -6.000000e+00 5.000000e+01
    endloop
  endfacet
  facet normal 0.000000e+00 -1.000000e+00 -0.000000e+00
    outer loop
      vertex   8.375000e+01 -6.000000e+00 5.000000e+01
      vertex   -8.375000e+01 -6.000000e+00 0.000000e+00
      vertex   8.375000e+01 -6.000000e+00 0.000000e+00
    endloop
  endfacet
  facet normal 0.000000e+00 0.000000e+00 -1.000000e+00
    outer loop
      vertex   -8.375000e+01 6.000000e+00 0.000000e+00
      vertex   8.375000e+01 6.000000e+00 0.000000e+00
      vertex   -8.375000e+01 -6.000000e+00 0.000000e+00
    endloop
  endfacet
  facet normal 0.000000e+00 0.000000e+00 -1.000000e+00
    outer loop
      vertex   -8.375000e+01 -6.000000e+00 0.000000e+00
      vertex   8.375000e+01 6.000000e+00 0.000000e+00
      vertex   8.375000e+01 -6.000000e+00 0.000000e+00
    endloop
  endfacet
  facet normal 1.000000e+00 0.000000e+00 0.000000e+00
    outer loop
      vertex   8.375000e+01 1.000000e+00 5.000000e+00
      vertex   8.375000e+01 -1.000000e+00 5.000000e+00
      vertex   8.375000e+01 -6.000000e+00 0.000000e+00
    endloop
  endfacet
  facet normal 1.000000e+00 0.000000e+00 0.000000e+00
    outer loop
      vertex   8.375000e+01 -6.000000e+00 0.000000e+00
      vertex   8.375000e+01 -1.000000e+00 5.000000e+00
      vertex   8.375000e+01 -1.000000e+00 4.500000e+01
    endloop
  endfacet
  facet normal 1.000000e+00 0.000000e+00 0.000000e+00
    outer loop
      vertex   8.375000e+01 -6.000000e+00 0.000000e+00
      vertex   8.375000e+01 -1.000000e+00 4.500000e+01
      vertex   8.375000e+01 -6.000000e+00 5.000000e+01
    endloop
  endfacet
  facet normal 1.000000e+00 0.000000e+00 0.000000e+00
    outer loop
      vertex   8.375000e+01 -6.000000e+00 5.000000e+01
      vertex   8.375000e+01 -1.000000e+00 4.500000e+01
      vertex   8.375000e+01 1.000000e+00 4.500000e+01
    endloop
  endfacet
  facet normal 1.000000e+00 -0.000000e+00 0.000000e+00
    outer loop
      vertex   8.375000e+01 -6.000000e+00 5.000000e+01
      vertex   8.375000e+01 1.000000e+00 4.500000e+01
      vertex   8.375000e+01 6.000000e+00 5.000000e+01
    endloop
  endfacet
  facet normal 1.000000e+00 0.000000e+00 0.000000e+00
    outer loop
      vertex   8.375000e+01 6.000000e+00 5.000000e+01
      vertex   8.375000e+01 1.000000e+00 4.500000e+01
      vertex   8.375000e+01 1.000000e+00 5.000000e+00
    endloop
  endfacet
  facet normal 1.000000e+00 0.000000e+00 0.000000e+00
    outer loop
      vertex   8.375000e+01 6.000000e+00 5.000000e+01
      vertex   8.375000e+01 1.000000e+00 5.000000e+00
      vertex   8.375000e+01 6.000000e+00 0.000000e+00
    endloop
  endfacet
  facet normal 1.000000e+00 0.000000e+00 0.000000e+00
    outer loop
      vertex   8.375000e+01 6.000000e+00 0.000000e+00
      vertex   8.375000e+01 1.000000e+00 5.000000e+00
      vertex   8.375000e+01 -6.000000e+00 0.000000e+00
    endloop
  endfacet
  facet normal 0.000000e+00 0.000000e+00 1.000000e+00
    outer loop
      vertex   8.375000e+01 6.000000e+00 5.000000e+01
      vertex   -8.375000e+01 6.000000e+00 5.000000e+01
      vertex   8.375000e+01 -6.000000e+00 5.000000e+01
    endloop
  endfacet
  facet normal 0.000000e+00 0.000000e+00 1.000000e+00
    outer loop
      vertex   8.375000e+01 -6.000000e+00 5.000000e+01
      vertex   -8.375000e+01 6.000000e+00 5.000000e+01
      vertex   -8.375000e+01 -6.000000e+00 5.000000e+01
    endloop
  endfacet
  facet normal -1.000000e+00 0.000000e+00 0.000000e+00
    outer loop
      vertex   -8.375000e+01 1.000000e+00 4.500000e+01
      vertex   -8.375000e+01 -1.000000e+00 4.500000e+01
      vertex   -8.375000e+01 -6.000000e+00 5.000000e+01
    endloop
  endfacet
  facet normal -1.000000e+00 0.000000e+00 0.000000e+00
    outer loop
      vertex   -8.375000e+01 -6.000000e+00 5.000000e+01
      vertex   -8.375000e+01 -1.000000e+00 4.500000e+01
      vertex   -8.375000e+01 -1.000000e+00 5.000000e+00
    endloop
  endfacet
  facet normal -1.000000e+00 0.000000e+00 0.000000e+00
    outer loop
      vertex   -8.375000e+01 -6.000000e+00 5.000000e+01
      vertex   -8.375000e+01 -1.000000e+00 5.000000e+00
      vertex   -8.375000e+01 -6.000000e+00 0.000000e+00
    endloop
  endfacet
  facet normal -1.000000e+00 0.000000e+00 0.000000e+00
    outer loop
      vertex   -8.375000e+01 -6.000000e+00 0.000000e+00
      vertex   -8.375000e+01 -1.000000e+00 5.000000e+00
      vertex   -8.375000e+01 1.000000e+00 5.000000e+00
    endloop
  endfacet
  facet normal -1.000000e+00 0.000000e+00 0.000000e+00
    outer loop
      vertex   -8.375000e+01 -6.000000e+00 0.000000e+00
      vertex   -8.375000e+01 1.000000e+00 5.000000e+00
      vertex   -8.375000e+01 6.000000e+00 0.000000e+00
    endloop
  endfacet
  facet normal -1.000000e+00 0.000000e+00 0.000000e+00
    outer loop
      vertex   -8.375000e+01 6.000000e+00 0.000000e+00
      vertex   -8.375000e+01 1.000000e+00 5.000000e+00
      vertex   -8.375000e+01 1.000000e+00 4.500000e+01
    endloop
  endfacet
  facet normal -1.000000e+00 0.000000e+00 0.000000e+00
    outer loop
      vertex   -8.375000e+01 6.000000e+00 0.000000e+00
      vertex   -8.375000e+01 1.000000e+00 4.500000e+01
      vertex   -8.375000e+01 6.000000e+00 5.000000e+01
    endloop
  endfacet
  facet normal -1.000000e+00 -0.000000e+00 0.000000e+00
    outer loop
      vertex   -8.375000e+01 6.000000e+00 5.000000e+01
      vertex   -8.375000e+01 1.000000e+00 4.500000e+01
      vertex   -8.375000e+01 -6.000000e+00 5.000000e+01
    endloop
  endfacet
  facet normal 0.000000e+00 1.000000e+00 0.000000e+00
    outer loop
      vertex   -8.375000e+01 6.000000e+00 0.000000e+00
      vertex   -8.375000e+01 6.000000e+00 5.000000e+01
      vertex   8.375000e+01 6.000000e+00 0.000000e+00
    endloop
  endfacet
  facet normal 0.000000e+00 1.000000e+00 -0.000000e+00
    outer loop
      vertex   8.375000e+01 6.000000e+00 0.000000e+00
      vertex   -8.375000e+01 6.000000e+00 5.000000e+01
      vertex   8.375000e+01 6.000000e+00 5.000000e+01
    endloop
  endfacet
endsolid
