solid generated by Pro/DESKTOP Version 8.0
	facet normal 0.000000e+000 0.000000e+000 -1.000000e+000
		outer loop
			vertex 8.200000e+000 2.000000e+000 0.000000e+000
			vertex 5.700000e+000 2.000000e+000 0.000000e+000
			vertex 8.200000e+000 7.000000e+000 0.000000e+000
		endloop
	endfacet
	facet normal 0.000000e+000 0.000000e+000 -1.000000e+000
		outer loop
			vertex 3.200000e+000 -5.000000e+000 0.000000e+000
			vertex 3.501041e+000 -1.703164e+000 0.000000e+000
			vertex 4.071198e+000 -1.344771e+000 0.000000e+000
		endloop
	endfacet
	facet normal 0.000000e+000 0.000000e+000 -1.000000e+000
		outer loop
			vertex 3.200000e+000 -5.000000e+000 0.000000e+000
			vertex 4.071198e+000 -1.344771e+000 0.000000e+000
			vertex 4.545668e+000 -8.696236e-001 0.000000e+000
		endloop
	endfacet
	facet normal 0.000000e+000 0.000000e+000 -1.000000e+000
		outer loop
			vertex 3.200000e+000 -5.000000e+000 0.000000e+000
			vertex 4.545668e+000 -8.696236e-001 0.000000e+000
			vertex 4.902327e+000 -3.018278e-001 0.000000e+000
		endloop
	endfacet
	facet normal 0.000000e+000 0.000000e+000 -1.000000e+000
		outer loop
			vertex 5.124151e+000 3.301518e-001 0.000000e+000
			vertex 5.200000e+000 1.000000e+000 0.000000e+000
			vertex 5.700000e+000 2.000000e+000 0.000000e+000
		endloop
	endfacet
	facet normal 0.000000e+000 0.000000e+000 -1.000000e+000
		outer loop
			vertex 5.124151e+000 3.301518e-001 0.000000e+000
			vertex 5.700000e+000 2.000000e+000 0.000000e+000
			vertex 5.700000e+000 -2.008352e-015 0.000000e+000
		endloop
	endfacet
	facet normal 0.000000e+000 0.000000e+000 -1.000000e+000
		outer loop
			vertex 4.902327e+000 -3.018278e-001 0.000000e+000
			vertex 5.124151e+000 3.301518e-001 0.000000e+000
			vertex 5.700000e+000 -2.008352e-015 0.000000e+000
		endloop
	endfacet
	facet normal 0.000000e+000 0.000000e+000 -1.000000e+000
		outer loop
			vertex 3.200000e+000 -5.000000e+000 0.000000e+000
			vertex 4.902327e+000 -3.018278e-001 0.000000e+000
			vertex 5.700000e+000 -2.008352e-015 0.000000e+000
		endloop
	endfacet
	facet normal 0.000000e+000 0.000000e+000 -1.000000e+000
		outer loop
			vertex 3.200000e+000 -5.000000e+000 0.000000e+000
			vertex 5.700000e+000 -2.008352e-015 0.000000e+000
			vertex 8.200000e+000 -1.258215e-015 0.000000e+000
		endloop
	endfacet
	facet normal 0.000000e+000 0.000000e+000 -1.000000e+000
		outer loop
			vertex 8.200000e+000 -5.000000e+000 0.000000e+000
			vertex 3.200000e+000 -5.000000e+000 0.000000e+000
			vertex 8.200000e+000 -1.258215e-015 0.000000e+000
		endloop
	endfacet
	facet normal 0.000000e+000 0.000000e+000 -1.000000e+000
		outer loop
			vertex 5.700000e+000 2.000000e+000 0.000000e+000
			vertex 5.200000e+000 1.000000e+000 0.000000e+000
			vertex 5.124151e+000 1.669848e+000 0.000000e+000
		endloop
	endfacet
	facet normal 0.000000e+000 0.000000e+000 -1.000000e+000
		outer loop
			vertex 8.200000e+000 7.000000e+000 0.000000e+000
			vertex 5.700000e+000 2.000000e+000 0.000000e+000
			vertex 5.124151e+000 1.669848e+000 0.000000e+000
		endloop
	endfacet
	facet normal 0.000000e+000 0.000000e+000 -1.000000e+000
		outer loop
			vertex 8.200000e+000 7.000000e+000 0.000000e+000
			vertex 5.124151e+000 1.669848e+000 0.000000e+000
			vertex 4.902327e+000 2.301828e+000 0.000000e+000
		endloop
	endfacet
	facet normal 0.000000e+000 0.000000e+000 -1.000000e+000
		outer loop
			vertex 8.200000e+000 7.000000e+000 0.000000e+000
			vertex 4.902327e+000 2.301828e+000 0.000000e+000
			vertex 4.545668e+000 2.869623e+000 0.000000e+000
		endloop
	endfacet
	facet normal 0.000000e+000 0.000000e+000 -1.000000e+000
		outer loop
			vertex 8.200000e+000 7.000000e+000 0.000000e+000
			vertex 4.545668e+000 2.869623e+000 0.000000e+000
			vertex 4.071198e+000 3.344771e+000 0.000000e+000
		endloop
	endfacet
	facet normal 0.000000e+000 0.000000e+000 -1.000000e+000
		outer loop
			vertex 8.200000e+000 7.000000e+000 0.000000e+000
			vertex 4.071198e+000 3.344771e+000 0.000000e+000
			vertex 3.501041e+000 3.703164e+000 0.000000e+000
		endloop
	endfacet
	facet normal 0.000000e+000 0.000000e+000 -1.000000e+000
		outer loop
			vertex 8.200000e+000 7.000000e+000 0.000000e+000
			vertex 3.501041e+000 3.703164e+000 0.000000e+000
			vertex 3.200000e+000 4.500000e+000 0.000000e+000
		endloop
	endfacet
	facet normal 0.000000e+000 0.000000e+000 -1.000000e+000
		outer loop
			vertex 3.200000e+000 7.000000e+000 0.000000e+000
			vertex 8.200000e+000 7.000000e+000 0.000000e+000
			vertex 3.200000e+000 4.500000e+000 0.000000e+000
		endloop
	endfacet
	facet normal 0.000000e+000 0.000000e+000 -1.000000e+000
		outer loop
			vertex 3.501041e+000 -1.703164e+000 0.000000e+000
			vertex 3.200000e+000 -5.000000e+000 0.000000e+000
			vertex 3.200000e+000 -2.500000e+000 0.000000e+000
		endloop
	endfacet
	facet normal 0.000000e+000 0.000000e+000 -1.000000e+000
		outer loop
			vertex 2.866495e+000 -1.924710e+000 0.000000e+000
			vertex 3.501041e+000 -1.703164e+000 0.000000e+000
			vertex 3.200000e+000 -2.500000e+000 0.000000e+000
		endloop
	endfacet
	facet normal 0.000000e+000 0.000000e+000 -1.000000e+000
		outer loop
			vertex 3.501041e+000 3.703164e+000 0.000000e+000
			vertex 2.866495e+000 3.924710e+000 0.000000e+000
			vertex 3.200000e+000 4.500000e+000 0.000000e+000
		endloop
	endfacet
	facet normal 0.000000e+000 0.000000e+000 -1.000000e+000
		outer loop
			vertex 1.200000e+000 -2.500000e+000 0.000000e+000
			vertex 1.533505e+000 -1.924710e+000 0.000000e+000
			vertex 2.200000e+000 -1.999535e+000 0.000000e+000
		endloop
	endfacet
	facet normal 0.000000e+000 0.000000e+000 -1.000000e+000
		outer loop
			vertex 1.200000e+000 -2.500000e+000 0.000000e+000
			vertex 2.200000e+000 -1.999535e+000 0.000000e+000
			vertex 2.866495e+000 -1.924710e+000 0.000000e+000
		endloop
	endfacet
	facet normal 0.000000e+000 0.000000e+000 -1.000000e+000
		outer loop
			vertex 3.200000e+000 -2.500000e+000 0.000000e+000
			vertex 1.200000e+000 -2.500000e+000 0.000000e+000
			vertex 2.866495e+000 -1.924710e+000 0.000000e+000
		endloop
	endfacet
	facet normal 0.000000e+000 0.000000e+000 -1.000000e+000
		outer loop
			vertex 3.200000e+000 4.500000e+000 0.000000e+000
			vertex 2.866495e+000 3.924710e+000 0.000000e+000
			vertex 2.200000e+000 3.999535e+000 0.000000e+000
		endloop
	endfacet
	facet normal 0.000000e+000 0.000000e+000 -1.000000e+000
		outer loop
			vertex 3.200000e+000 4.500000e+000 0.000000e+000
			vertex 2.200000e+000 3.999535e+000 0.000000e+000
			vertex 1.533505e+000 3.924710e+000 0.000000e+000
		endloop
	endfacet
	facet normal 0.000000e+000 0.000000e+000 -1.000000e+000
		outer loop
			vertex 1.200000e+000 4.500000e+000 0.000000e+000
			vertex 3.200000e+000 4.500000e+000 0.000000e+000
			vertex 1.533505e+000 3.924710e+000 0.000000e+000
		endloop
	endfacet
	facet normal 0.000000e+000 0.000000e+000 -1.000000e+000
		outer loop
			vertex 8.989591e-001 -1.703164e+000 0.000000e+000
			vertex 1.533505e+000 -1.924710e+000 0.000000e+000
			vertex 1.200000e+000 -2.500000e+000 0.000000e+000
		endloop
	endfacet
	facet normal 0.000000e+000 0.000000e+000 -1.000000e+000
		outer loop
			vertex 8.989591e-001 3.703164e+000 0.000000e+000
			vertex 1.200000e+000 7.000000e+000 0.000000e+000
			vertex 1.200000e+000 4.500000e+000 0.000000e+000
		endloop
	endfacet
	facet normal -0.000000e+000 0.000000e+000 -1.000000e+000
		outer loop
			vertex 1.533505e+000 3.924710e+000 0.000000e+000
			vertex 8.989591e-001 3.703164e+000 0.000000e+000
			vertex 1.200000e+000 4.500000e+000 0.000000e+000
		endloop
	endfacet
	facet normal 0.000000e+000 0.000000e+000 -1.000000e+000
		outer loop
			vertex -1.300000e+000 6.406480e-016 0.000000e+000
			vertex -8.000000e-001 1.000000e+000 0.000000e+000
			vertex -7.241506e-001 3.301518e-001 0.000000e+000
		endloop
	endfacet
	facet normal 0.000000e+000 0.000000e+000 -1.000000e+000
		outer loop
			vertex -3.800000e+000 -5.000000e+000 0.000000e+000
			vertex -1.300000e+000 6.406480e-016 0.000000e+000
			vertex -7.241506e-001 3.301518e-001 0.000000e+000
		endloop
	endfacet
	facet normal 0.000000e+000 0.000000e+000 -1.000000e+000
		outer loop
			vertex -3.800000e+000 -5.000000e+000 0.000000e+000
			vertex -7.241506e-001 3.301518e-001 0.000000e+000
			vertex -5.023268e-001 -3.018278e-001 0.000000e+000
		endloop
	endfacet
	facet normal 0.000000e+000 0.000000e+000 -1.000000e+000
		outer loop
			vertex -3.800000e+000 -5.000000e+000 0.000000e+000
			vertex -5.023268e-001 -3.018278e-001 0.000000e+000
			vertex -1.456679e-001 -8.696236e-001 0.000000e+000
		endloop
	endfacet
	facet normal 0.000000e+000 0.000000e+000 -1.000000e+000
		outer loop
			vertex -3.800000e+000 -5.000000e+000 0.000000e+000
			vertex -1.456679e-001 -8.696236e-001 0.000000e+000
			vertex 3.288020e-001 -1.344771e+000 0.000000e+000
		endloop
	endfacet
	facet normal 0.000000e+000 0.000000e+000 -1.000000e+000
		outer loop
			vertex -3.800000e+000 -5.000000e+000 0.000000e+000
			vertex 3.288020e-001 -1.344771e+000 0.000000e+000
			vertex 8.989591e-001 -1.703164e+000 0.000000e+000
		endloop
	endfacet
	facet normal 0.000000e+000 0.000000e+000 -1.000000e+000
		outer loop
			vertex -3.800000e+000 -5.000000e+000 0.000000e+000
			vertex 8.989591e-001 -1.703164e+000 0.000000e+000
			vertex 1.200000e+000 -2.500000e+000 0.000000e+000
		endloop
	endfacet
	facet normal 0.000000e+000 0.000000e+000 -1.000000e+000
		outer loop
			vertex 1.200000e+000 -5.000000e+000 0.000000e+000
			vertex -3.800000e+000 -5.000000e+000 0.000000e+000
			vertex 1.200000e+000 -2.500000e+000 0.000000e+000
		endloop
	endfacet
	facet normal 0.000000e+000 0.000000e+000 -1.000000e+000
		outer loop
			vertex -3.800000e+000 1.451867e-015 0.000000e+000
			vertex -1.300000e+000 6.406480e-016 0.000000e+000
			vertex -3.800000e+000 -5.000000e+000 0.000000e+000
		endloop
	endfacet
	facet normal 0.000000e+000 0.000000e+000 -1.000000e+000
		outer loop
			vertex 1.200000e+000 7.000000e+000 0.000000e+000
			vertex 8.989591e-001 3.703164e+000 0.000000e+000
			vertex 3.288020e-001 3.344771e+000 0.000000e+000
		endloop
	endfacet
	facet normal 0.000000e+000 0.000000e+000 -1.000000e+000
		outer loop
			vertex 1.200000e+000 7.000000e+000 0.000000e+000
			vertex 3.288020e-001 3.344771e+000 0.000000e+000
			vertex -1.456679e-001 2.869623e+000 0.000000e+000
		endloop
	endfacet
	facet normal 0.000000e+000 0.000000e+000 -1.000000e+000
		outer loop
			vertex 1.200000e+000 7.000000e+000 0.000000e+000
			vertex -1.456679e-001 2.869623e+000 0.000000e+000
			vertex -5.023268e-001 2.301828e+000 0.000000e+000
		endloop
	endfacet
	facet normal 0.000000e+000 0.000000e+000 -1.000000e+000
		outer loop
			vertex -7.241506e-001 1.669848e+000 0.000000e+000
			vertex -8.000000e-001 1.000000e+000 0.000000e+000
			vertex -1.300000e+000 6.406480e-016 0.000000e+000
		endloop
	endfacet
	facet normal -0.000000e+000 0.000000e+000 -1.000000e+000
		outer loop
			vertex -7.241506e-001 1.669848e+000 0.000000e+000
			vertex -1.300000e+000 6.406480e-016 0.000000e+000
			vertex -1.300000e+000 2.000000e+000 0.000000e+000
		endloop
	endfacet
	facet normal 0.000000e+000 0.000000e+000 -1.000000e+000
		outer loop
			vertex -5.023268e-001 2.301828e+000 0.000000e+000
			vertex -7.241506e-001 1.669848e+000 0.000000e+000
			vertex -1.300000e+000 2.000000e+000 0.000000e+000
		endloop
	endfacet
	facet normal 0.000000e+000 0.000000e+000 -1.000000e+000
		outer loop
			vertex 1.200000e+000 7.000000e+000 0.000000e+000
			vertex -5.023268e-001 2.301828e+000 0.000000e+000
			vertex -1.300000e+000 2.000000e+000 0.000000e+000
		endloop
	endfacet
	facet normal 0.000000e+000 0.000000e+000 -1.000000e+000
		outer loop
			vertex 1.200000e+000 7.000000e+000 0.000000e+000
			vertex -1.300000e+000 2.000000e+000 0.000000e+000
			vertex -3.800000e+000 2.000000e+000 0.000000e+000
		endloop
	endfacet
	facet normal 0.000000e+000 0.000000e+000 -1.000000e+000
		outer loop
			vertex -3.800000e+000 7.000000e+000 0.000000e+000
			vertex 1.200000e+000 7.000000e+000 0.000000e+000
			vertex -3.800000e+000 2.000000e+000 0.000000e+000
		endloop
	endfacet
	facet normal 0.000000e+000 0.000000e+000 1.000000e+000
		outer loop
			vertex 7.200000e+000 -1.000000e+000 5.000000e+001
			vertex 4.700000e+000 -1.000000e+000 5.000000e+001
			vertex 7.200000e+000 -4.000000e+000 5.000000e+001
		endloop
	endfacet
	facet normal 0.000000e+000 0.000000e+000 1.000000e+000
		outer loop
			vertex 4.200000e+000 6.000000e+000 5.000000e+001
			vertex 4.700000e+000 -1.000000e+000 5.000000e+001
			vertex 4.700000e+000 3.000000e+000 5.000000e+001
		endloop
	endfacet
	facet normal 0.000000e+000 0.000000e+000 1.000000e+000
		outer loop
			vertex 4.200000e+000 6.000000e+000 5.000000e+001
			vertex 4.700000e+000 3.000000e+000 5.000000e+001
			vertex 7.200000e+000 3.000000e+000 5.000000e+001
		endloop
	endfacet
	facet normal 0.000000e+000 0.000000e+000 1.000000e+000
		outer loop
			vertex 7.200000e+000 6.000000e+000 5.000000e+001
			vertex 4.200000e+000 6.000000e+000 5.000000e+001
			vertex 7.200000e+000 3.000000e+000 5.000000e+001
		endloop
	endfacet
	facet normal 0.000000e+000 0.000000e+000 1.000000e+000
		outer loop
			vertex 4.700000e+000 -1.000000e+000 5.000000e+001
			vertex 4.200000e+000 6.000000e+000 5.000000e+001
			vertex 4.200000e+000 3.500000e+000 5.000000e+001
		endloop
	endfacet
	facet normal 0.000000e+000 0.000000e+000 1.000000e+000
		outer loop
			vertex 4.700000e+000 -1.000000e+000 5.000000e+001
			vertex 4.200000e+000 3.500000e+000 5.000000e+001
			vertex 3.200000e+000 -1.500000e+000 5.000000e+001
		endloop
	endfacet
	facet normal 0.000000e+000 0.000000e+000 1.000000e+000
		outer loop
			vertex 7.200000e+000 -4.000000e+000 5.000000e+001
			vertex 4.700000e+000 -1.000000e+000 5.000000e+001
			vertex 3.200000e+000 -1.500000e+000 5.000000e+001
		endloop
	endfacet
	facet normal 0.000000e+000 0.000000e+000 1.000000e+000
		outer loop
			vertex 3.200000e+000 -4.000000e+000 5.000000e+001
			vertex 7.200000e+000 -4.000000e+000 5.000000e+001
			vertex 3.200000e+000 -1.500000e+000 5.000000e+001
		endloop
	endfacet
	facet normal 0.000000e+000 0.000000e+000 1.000000e+000
		outer loop
			vertex 4.200000e+000 3.500000e+000 5.000000e+001
			vertex 2.000000e-001 3.500000e+000 5.000000e+001
			vertex 3.200000e+000 -1.500000e+000 5.000000e+001
		endloop
	endfacet
	facet normal 0.000000e+000 0.000000e+000 1.000000e+000
		outer loop
			vertex 2.000000e-001 -1.500000e+000 5.000000e+001
			vertex 3.200000e+000 -1.500000e+000 5.000000e+001
			vertex 2.000000e-001 3.500000e+000 5.000000e+001
		endloop
	endfacet
	facet normal 0.000000e+000 0.000000e+000 1.000000e+000
		outer loop
			vertex -3.000000e-001 3.000000e+000 5.000000e+001
			vertex 2.000000e-001 -4.000000e+000 5.000000e+001
			vertex 2.000000e-001 -1.500000e+000 5.000000e+001
		endloop
	endfacet
	facet normal -0.000000e+000 0.000000e+000 1.000000e+000
		outer loop
			vertex -3.000000e-001 3.000000e+000 5.000000e+001
			vertex 2.000000e-001 -1.500000e+000 5.000000e+001
			vertex 2.000000e-001 3.500000e+000 5.000000e+001
		endloop
	endfacet
	facet normal 0.000000e+000 0.000000e+000 1.000000e+000
		outer loop
			vertex -2.800000e+000 6.000000e+000 5.000000e+001
			vertex -3.000000e-001 3.000000e+000 5.000000e+001
			vertex 2.000000e-001 3.500000e+000 5.000000e+001
		endloop
	endfacet
	facet normal 0.000000e+000 0.000000e+000 1.000000e+000
		outer loop
			vertex 2.000000e-001 6.000000e+000 5.000000e+001
			vertex -2.800000e+000 6.000000e+000 5.000000e+001
			vertex 2.000000e-001 3.500000e+000 5.000000e+001
		endloop
	endfacet
	facet normal 0.000000e+000 0.000000e+000 1.000000e+000
		outer loop
			vertex -2.800000e+000 3.000000e+000 5.000000e+001
			vertex -3.000000e-001 3.000000e+000 5.000000e+001
			vertex -2.800000e+000 6.000000e+000 5.000000e+001
		endloop
	endfacet
	facet normal 0.000000e+000 0.000000e+000 1.000000e+000
		outer loop
			vertex 2.000000e-001 -4.000000e+000 5.000000e+001
			vertex -3.000000e-001 3.000000e+000 5.000000e+001
			vertex -3.000000e-001 -1.000000e+000 5.000000e+001
		endloop
	endfacet
	facet normal 0.000000e+000 0.000000e+000 1.000000e+000
		outer loop
			vertex 2.000000e-001 -4.000000e+000 5.000000e+001
			vertex -3.000000e-001 -1.000000e+000 5.000000e+001
			vertex -2.800000e+000 -1.000000e+000 5.000000e+001
		endloop
	endfacet
	facet normal 0.000000e+000 0.000000e+000 1.000000e+000
		outer loop
			vertex -2.800000e+000 -4.000000e+000 5.000000e+001
			vertex 2.000000e-001 -4.000000e+000 5.000000e+001
			vertex -2.800000e+000 -1.000000e+000 5.000000e+001
		endloop
	endfacet
	facet normal 3.244877e-016 1.000000e+000 0.000000e+000
		outer loop
			vertex -1.300000e+000 6.406480e-016 4.850000e+001
			vertex -1.300000e+000 6.406480e-016 0.000000e+000
			vertex -3.800000e+000 1.451867e-015 4.850000e+001
		endloop
	endfacet
	facet normal 3.244877e-016 1.000000e+000 -0.000000e+000
		outer loop
			vertex -3.800000e+000 1.451867e-015 0.000000e+000
			vertex -3.800000e+000 1.451867e-015 4.850000e+001
			vertex -1.300000e+000 6.406480e-016 0.000000e+000
		endloop
	endfacet
	facet normal -1.000000e+000 -0.000000e+000 -0.000000e+000
		outer loop
			vertex -3.800000e+000 1.451867e-015 4.850000e+001
			vertex -3.800000e+000 1.451867e-015 0.000000e+000
			vertex -3.800000e+000 -5.000000e+000 4.850000e+001
		endloop
	endfacet
	facet normal -1.000000e+000 0.000000e+000 0.000000e+000
		outer loop
			vertex -3.800000e+000 -5.000000e+000 0.000000e+000
			vertex -3.800000e+000 -5.000000e+000 4.850000e+001
			vertex -3.800000e+000 1.451867e-015 0.000000e+000
		endloop
	endfacet
	facet normal 0.000000e+000 -1.000000e+000 0.000000e+000
		outer loop
			vertex -3.800000e+000 -5.000000e+000 4.850000e+001
			vertex -3.800000e+000 -5.000000e+000 0.000000e+000
			vertex 1.200000e+000 -5.000000e+000 4.850000e+001
		endloop
	endfacet
	facet normal 0.000000e+000 -1.000000e+000 0.000000e+000
		outer loop
			vertex 1.200000e+000 -5.000000e+000 0.000000e+000
			vertex 1.200000e+000 -5.000000e+000 4.850000e+001
			vertex -3.800000e+000 -5.000000e+000 0.000000e+000
		endloop
	endfacet
	facet normal 1.000000e+000 -0.000000e+000 0.000000e+000
		outer loop
			vertex 1.200000e+000 -5.000000e+000 4.850000e+001
			vertex 1.200000e+000 -5.000000e+000 0.000000e+000
			vertex 1.200000e+000 -2.500000e+000 4.850000e+001
		endloop
	endfacet
	facet normal 1.000000e+000 0.000000e+000 -0.000000e+000
		outer loop
			vertex 1.200000e+000 -2.500000e+000 0.000000e+000
			vertex 1.200000e+000 -2.500000e+000 4.850000e+001
			vertex 1.200000e+000 -5.000000e+000 0.000000e+000
		endloop
	endfacet
	facet normal 0.000000e+000 -1.000000e+000 0.000000e+000
		outer loop
			vertex 1.200000e+000 -2.500000e+000 4.850000e+001
			vertex 1.200000e+000 -2.500000e+000 0.000000e+000
			vertex 3.200000e+000 -2.500000e+000 4.850000e+001
		endloop
	endfacet
	facet normal 0.000000e+000 -1.000000e+000 0.000000e+000
		outer loop
			vertex 3.200000e+000 -2.500000e+000 0.000000e+000
			vertex 3.200000e+000 -2.500000e+000 4.850000e+001
			vertex 1.200000e+000 -2.500000e+000 0.000000e+000
		endloop
	endfacet
	facet normal -1.000000e+000 -0.000000e+000 0.000000e+000
		outer loop
			vertex 3.200000e+000 -1.500000e+000 5.000000e+001
			vertex 3.200000e+000 -2.500000e+000 4.850000e+001
			vertex 3.200000e+000 -4.000000e+000 5.000000e+001
		endloop
	endfacet
	facet normal -1.000000e+000 0.000000e+000 0.000000e+000
		outer loop
			vertex 3.200000e+000 -5.000000e+000 4.850000e+001
			vertex 3.200000e+000 -4.000000e+000 5.000000e+001
			vertex 3.200000e+000 -2.500000e+000 4.850000e+001
		endloop
	endfacet
	facet normal -1.000000e+000 -0.000000e+000 -0.000000e+000
		outer loop
			vertex 3.200000e+000 -2.500000e+000 4.850000e+001
			vertex 3.200000e+000 -2.500000e+000 0.000000e+000
			vertex 3.200000e+000 -5.000000e+000 4.850000e+001
		endloop
	endfacet
	facet normal -1.000000e+000 0.000000e+000 0.000000e+000
		outer loop
			vertex 3.200000e+000 -5.000000e+000 0.000000e+000
			vertex 3.200000e+000 -5.000000e+000 4.850000e+001
			vertex 3.200000e+000 -2.500000e+000 0.000000e+000
		endloop
	endfacet
	facet normal 0.000000e+000 -1.000000e+000 0.000000e+000
		outer loop
			vertex 3.200000e+000 -5.000000e+000 4.850000e+001
			vertex 3.200000e+000 -5.000000e+000 0.000000e+000
			vertex 8.200000e+000 -5.000000e+000 4.850000e+001
		endloop
	endfacet
	facet normal 0.000000e+000 -1.000000e+000 0.000000e+000
		outer loop
			vertex 8.200000e+000 -5.000000e+000 0.000000e+000
			vertex 8.200000e+000 -5.000000e+000 4.850000e+001
			vertex 3.200000e+000 -5.000000e+000 0.000000e+000
		endloop
	endfacet
	facet normal 1.000000e+000 -0.000000e+000 0.000000e+000
		outer loop
			vertex 8.200000e+000 -5.000000e+000 4.850000e+001
			vertex 8.200000e+000 -5.000000e+000 0.000000e+000
			vertex 8.200000e+000 -8.673617e-016 4.850000e+001
		endloop
	endfacet
	facet normal 1.000000e+000 0.000000e+000 -0.000000e+000
		outer loop
			vertex 8.200000e+000 -1.258215e-015 0.000000e+000
			vertex 8.200000e+000 -8.673617e-016 4.850000e+001
			vertex 8.200000e+000 -5.000000e+000 0.000000e+000
		endloop
	endfacet
	facet normal -4.563960e-016 1.000000e+000 -8.058820e-018
		outer loop
			vertex 8.200000e+000 -8.673617e-016 4.850000e+001
			vertex 8.200000e+000 -1.258215e-015 0.000000e+000
			vertex 5.700000e+000 -2.008352e-015 4.850000e+001
		endloop
	endfacet
	facet normal -3.000549e-016 1.000000e+000 0.000000e+000
		outer loop
			vertex 5.700000e+000 -2.008352e-015 0.000000e+000
			vertex 5.700000e+000 -2.008352e-015 4.850000e+001
			vertex 8.200000e+000 -1.258215e-015 0.000000e+000
		endloop
	endfacet
	facet normal 1.000000e+000 -0.000000e+000 0.000000e+000
		outer loop
			vertex 5.700000e+000 -2.008352e-015 4.850000e+001
			vertex 5.700000e+000 -2.008352e-015 0.000000e+000
			vertex 5.700000e+000 2.000000e+000 4.850000e+001
		endloop
	endfacet
	facet normal 1.000000e+000 0.000000e+000 -0.000000e+000
		outer loop
			vertex 5.700000e+000 2.000000e+000 0.000000e+000
			vertex 5.700000e+000 2.000000e+000 4.850000e+001
			vertex 5.700000e+000 -2.008352e-015 0.000000e+000
		endloop
	endfacet
	facet normal 0.000000e+000 -1.000000e+000 0.000000e+000
		outer loop
			vertex 5.700000e+000 2.000000e+000 4.850000e+001
			vertex 5.700000e+000 2.000000e+000 0.000000e+000
			vertex 8.200000e+000 2.000000e+000 4.850000e+001
		endloop
	endfacet
	facet normal 0.000000e+000 -1.000000e+000 0.000000e+000
		outer loop
			vertex 8.200000e+000 2.000000e+000 0.000000e+000
			vertex 8.200000e+000 2.000000e+000 4.850000e+001
			vertex 5.700000e+000 2.000000e+000 0.000000e+000
		endloop
	endfacet
	facet normal 1.000000e+000 -0.000000e+000 0.000000e+000
		outer loop
			vertex 8.200000e+000 2.000000e+000 4.850000e+001
			vertex 8.200000e+000 2.000000e+000 0.000000e+000
			vertex 8.200000e+000 7.000000e+000 4.850000e+001
		endloop
	endfacet
	facet normal 1.000000e+000 0.000000e+000 -0.000000e+000
		outer loop
			vertex 8.200000e+000 7.000000e+000 0.000000e+000
			vertex 8.200000e+000 7.000000e+000 4.850000e+001
			vertex 8.200000e+000 2.000000e+000 0.000000e+000
		endloop
	endfacet
	facet normal 0.000000e+000 1.000000e+000 0.000000e+000
		outer loop
			vertex 8.200000e+000 7.000000e+000 4.850000e+001
			vertex 8.200000e+000 7.000000e+000 0.000000e+000
			vertex 3.200000e+000 7.000000e+000 4.850000e+001
		endloop
	endfacet
	facet normal 0.000000e+000 1.000000e+000 0.000000e+000
		outer loop
			vertex 3.200000e+000 7.000000e+000 0.000000e+000
			vertex 3.200000e+000 7.000000e+000 4.850000e+001
			vertex 8.200000e+000 7.000000e+000 0.000000e+000
		endloop
	endfacet
	facet normal -1.000000e+000 -0.000000e+000 -0.000000e+000
		outer loop
			vertex 3.200000e+000 7.000000e+000 4.850000e+001
			vertex 3.200000e+000 7.000000e+000 0.000000e+000
			vertex 3.200000e+000 4.500000e+000 4.850000e+001
		endloop
	endfacet
	facet normal -1.000000e+000 0.000000e+000 0.000000e+000
		outer loop
			vertex 3.200000e+000 4.500000e+000 0.000000e+000
			vertex 3.200000e+000 4.500000e+000 4.850000e+001
			vertex 3.200000e+000 7.000000e+000 0.000000e+000
		endloop
	endfacet
	facet normal 0.000000e+000 1.000000e+000 0.000000e+000
		outer loop
			vertex 3.200000e+000 4.500000e+000 4.850000e+001
			vertex 3.200000e+000 4.500000e+000 0.000000e+000
			vertex 1.200000e+000 4.500000e+000 4.850000e+001
		endloop
	endfacet
	facet normal 0.000000e+000 1.000000e+000 0.000000e+000
		outer loop
			vertex 1.200000e+000 4.500000e+000 0.000000e+000
			vertex 1.200000e+000 4.500000e+000 4.850000e+001
			vertex 3.200000e+000 4.500000e+000 0.000000e+000
		endloop
	endfacet
	facet normal 1.000000e+000 -0.000000e+000 0.000000e+000
		outer loop
			vertex 1.200000e+000 4.500000e+000 4.850000e+001
			vertex 1.200000e+000 4.500000e+000 0.000000e+000
			vertex 1.200000e+000 7.000000e+000 4.850000e+001
		endloop
	endfacet
	facet normal 1.000000e+000 0.000000e+000 -0.000000e+000
		outer loop
			vertex 1.200000e+000 7.000000e+000 0.000000e+000
			vertex 1.200000e+000 7.000000e+000 4.850000e+001
			vertex 1.200000e+000 4.500000e+000 0.000000e+000
		endloop
	endfacet
	facet normal 0.000000e+000 1.000000e+000 0.000000e+000
		outer loop
			vertex 1.200000e+000 7.000000e+000 4.850000e+001
			vertex 1.200000e+000 7.000000e+000 0.000000e+000
			vertex -3.800000e+000 7.000000e+000 4.850000e+001
		endloop
	endfacet
	facet normal 0.000000e+000 1.000000e+000 0.000000e+000
		outer loop
			vertex -3.800000e+000 7.000000e+000 0.000000e+000
			vertex -3.800000e+000 7.000000e+000 4.850000e+001
			vertex 1.200000e+000 7.000000e+000 0.000000e+000
		endloop
	endfacet
	facet normal -1.000000e+000 -0.000000e+000 -0.000000e+000
		outer loop
			vertex -3.800000e+000 7.000000e+000 4.850000e+001
			vertex -3.800000e+000 7.000000e+000 0.000000e+000
			vertex -3.800000e+000 2.000000e+000 4.850000e+001
		endloop
	endfacet
	facet normal -1.000000e+000 0.000000e+000 0.000000e+000
		outer loop
			vertex -3.800000e+000 2.000000e+000 0.000000e+000
			vertex -3.800000e+000 2.000000e+000 4.850000e+001
			vertex -3.800000e+000 7.000000e+000 0.000000e+000
		endloop
	endfacet
	facet normal 0.000000e+000 -1.000000e+000 0.000000e+000
		outer loop
			vertex -3.800000e+000 2.000000e+000 4.850000e+001
			vertex -3.800000e+000 2.000000e+000 0.000000e+000
			vertex -1.300000e+000 2.000000e+000 4.850000e+001
		endloop
	endfacet
	facet normal 0.000000e+000 -1.000000e+000 0.000000e+000
		outer loop
			vertex -1.300000e+000 2.000000e+000 0.000000e+000
			vertex -1.300000e+000 2.000000e+000 4.850000e+001
			vertex -3.800000e+000 2.000000e+000 0.000000e+000
		endloop
	endfacet
	facet normal -1.000000e+000 -0.000000e+000 -0.000000e+000
		outer loop
			vertex -1.300000e+000 2.000000e+000 4.850000e+001
			vertex -1.300000e+000 2.000000e+000 0.000000e+000
			vertex -1.300000e+000 6.406480e-016 4.850000e+001
		endloop
	endfacet
	facet normal -1.000000e+000 0.000000e+000 0.000000e+000
		outer loop
			vertex -1.300000e+000 6.406480e-016 0.000000e+000
			vertex -1.300000e+000 6.406480e-016 4.850000e+001
			vertex -1.300000e+000 2.000000e+000 0.000000e+000
		endloop
	endfacet
	facet normal 0.000000e+000 -0.000000e+000 -1.000000e+000
		outer loop
			vertex 4.132938e+000 1.513343e+000 -1.000000e+001
			vertex 4.200000e+000 1.000000e+000 -1.000000e+001
			vertex 4.132874e+000 4.864949e-001 -1.000000e+001
		endloop
	endfacet
	facet normal -0.000000e+000 0.000000e+000 -1.000000e+000
		outer loop
			vertex 4.132874e+000 4.864949e-001 -1.000000e+001
			vertex 3.934727e+000 4.666630e-003 -1.000000e+001
			vertex 4.132938e+000 1.513343e+000 -1.000000e+001
		endloop
	endfacet
	facet normal 0.000000e+000 -0.000000e+000 -1.000000e+000
		outer loop
			vertex 3.934890e+000 1.995063e+000 -1.000000e+001
			vertex 4.132938e+000 1.513343e+000 -1.000000e+001
			vertex 3.934727e+000 4.666630e-003 -1.000000e+001
		endloop
	endfacet
	facet normal -0.000000e+000 0.000000e+000 -1.000000e+000
		outer loop
			vertex 3.934727e+000 4.666630e-003 -1.000000e+001
			vertex 3.617181e+000 -4.112303e-001 -1.000000e+001
			vertex 3.934890e+000 1.995063e+000 -1.000000e+001
		endloop
	endfacet
	facet normal 0.000000e+000 -0.000000e+000 -1.000000e+000
		outer loop
			vertex 3.617404e+000 2.411013e+000 -1.000000e+001
			vertex 3.934890e+000 1.995063e+000 -1.000000e+001
			vertex 3.617181e+000 -4.112303e-001 -1.000000e+001
		endloop
	endfacet
	facet normal -0.000000e+000 0.000000e+000 -1.000000e+000
		outer loop
			vertex 3.617181e+000 -4.112303e-001 -1.000000e+001
			vertex 3.202294e+000 -7.307200e-001 -1.000000e+001
			vertex 3.617404e+000 2.411013e+000 -1.000000e+001
		endloop
	endfacet
	facet normal 0.000000e+000 -0.000000e+000 -1.000000e+000
		outer loop
			vertex 3.202477e+000 2.730618e+000 -1.000000e+001
			vertex 3.617404e+000 2.411013e+000 -1.000000e+001
			vertex 3.202294e+000 -7.307200e-001 -1.000000e+001
		endloop
	endfacet
	facet normal -0.000000e+000 0.000000e+000 -1.000000e+000
		outer loop
			vertex 3.202294e+000 -7.307200e-001 -1.000000e+001
			vertex 2.718917e+000 -9.315053e-001 -1.000000e+001
			vertex 3.202477e+000 2.730618e+000 -1.000000e+001
		endloop
	endfacet
	facet normal 0.000000e+000 -0.000000e+000 -1.000000e+000
		outer loop
			vertex 2.719006e+000 2.931485e+000 -1.000000e+001
			vertex 3.202477e+000 2.730618e+000 -1.000000e+001
			vertex 2.718917e+000 -9.315053e-001 -1.000000e+001
		endloop
	endfacet
	facet normal -0.000000e+000 0.000000e+000 -1.000000e+000
		outer loop
			vertex 2.718917e+000 -9.315053e-001 -1.000000e+001
			vertex 2.199983e+000 -9.999993e-001 -1.000000e+001
			vertex 2.719006e+000 2.931485e+000 -1.000000e+001
		endloop
	endfacet
	facet normal 0.000000e+000 -0.000000e+000 -1.000000e+000
		outer loop
			vertex 2.200017e+000 2.999999e+000 -1.000000e+001
			vertex 2.719006e+000 2.931485e+000 -1.000000e+001
			vertex 2.199983e+000 -9.999993e-001 -1.000000e+001
		endloop
	endfacet
	facet normal 0.000000e+000 0.000000e+000 -1.000000e+000
		outer loop
			vertex 2.199983e+000 -9.999993e-001 -1.000000e+001
			vertex 1.680994e+000 -9.314847e-001 -1.000000e+001
			vertex 2.200017e+000 2.999999e+000 -1.000000e+001
		endloop
	endfacet
	facet normal 0.000000e+000 -0.000000e+000 -1.000000e+000
		outer loop
			vertex 1.681083e+000 2.931505e+000 -1.000000e+001
			vertex 2.200017e+000 2.999999e+000 -1.000000e+001
			vertex 1.680994e+000 -9.314847e-001 -1.000000e+001
		endloop
	endfacet
	facet normal 0.000000e+000 0.000000e+000 -1.000000e+000
		outer loop
			vertex 1.680994e+000 -9.314847e-001 -1.000000e+001
			vertex 1.197523e+000 -7.306183e-001 -1.000000e+001
			vertex 1.681083e+000 2.931505e+000 -1.000000e+001
		endloop
	endfacet
	facet normal 0.000000e+000 -0.000000e+000 -1.000000e+000
		outer loop
			vertex 1.197706e+000 2.730720e+000 -1.000000e+001
			vertex 1.681083e+000 2.931505e+000 -1.000000e+001
			vertex 1.197523e+000 -7.306183e-001 -1.000000e+001
		endloop
	endfacet
	facet normal 0.000000e+000 0.000000e+000 -1.000000e+000
		outer loop
			vertex 1.197523e+000 -7.306183e-001 -1.000000e+001
			vertex 7.825955e-001 -4.110135e-001 -1.000000e+001
			vertex 1.197706e+000 2.730720e+000 -1.000000e+001
		endloop
	endfacet
	facet normal 0.000000e+000 -0.000000e+000 -1.000000e+000
		outer loop
			vertex 7.828189e-001 2.411230e+000 -1.000000e+001
			vertex 1.197706e+000 2.730720e+000 -1.000000e+001
			vertex 7.825955e-001 -4.110135e-001 -1.000000e+001
		endloop
	endfacet
	facet normal 0.000000e+000 0.000000e+000 -1.000000e+000
		outer loop
			vertex 7.825955e-001 -4.110135e-001 -1.000000e+001
			vertex 4.651099e-001 4.937388e-003 -1.000000e+001
			vertex 7.828189e-001 2.411230e+000 -1.000000e+001
		endloop
	endfacet
	facet normal 0.000000e+000 -0.000000e+000 -1.000000e+000
		outer loop
			vertex 4.652735e-001 1.995333e+000 -1.000000e+001
			vertex 7.828189e-001 2.411230e+000 -1.000000e+001
			vertex 4.651099e-001 4.937388e-003 -1.000000e+001
		endloop
	endfacet
	facet normal 0.000000e+000 0.000000e+000 -1.000000e+000
		outer loop
			vertex 4.651099e-001 4.937388e-003 -1.000000e+001
			vertex 2.670622e-001 4.866571e-001 -1.000000e+001
			vertex 4.652735e-001 1.995333e+000 -1.000000e+001
		endloop
	endfacet
	facet normal 0.000000e+000 -0.000000e+000 -1.000000e+000
		outer loop
			vertex 2.671263e-001 1.513505e+000 -1.000000e+001
			vertex 4.652735e-001 1.995333e+000 -1.000000e+001
			vertex 2.670622e-001 4.866571e-001 -1.000000e+001
		endloop
	endfacet
	facet normal 0.000000e+000 0.000000e+000 -1.000000e+000
		outer loop
			vertex 2.670622e-001 4.866571e-001 -1.000000e+001
			vertex 2.000000e-001 1.000000e+000 -1.000000e+001
			vertex 2.671263e-001 1.513505e+000 -1.000000e+001
		endloop
	endfacet
	facet normal -9.938034e-001 1.111520e-001 1.155525e-004
		outer loop
			vertex -7.241506e-001 1.669848e+000 0.000000e+000
			vertex -7.258713e-001 1.662780e+000 -7.999772e+000
			vertex -8.000000e-001 1.000000e+000 -8.000000e+000
		endloop
	endfacet
	facet normal -9.936501e-001 1.125147e-001 0.000000e+000
		outer loop
			vertex -8.000000e-001 1.000000e+000 0.000000e+000
			vertex -7.241506e-001 1.669848e+000 0.000000e+000
			vertex -8.000000e-001 1.000000e+000 -8.000000e+000
		endloop
	endfacet
	facet normal -9.445364e-001 3.284066e-001 -8.700832e-005
		outer loop
			vertex -5.059335e-001 2.295347e+000 -7.999916e+000
			vertex -7.258713e-001 1.662780e+000 -7.999772e+000
			vertex -7.241506e-001 1.669848e+000 0.000000e+000
		endloop
	endfacet
	facet normal -9.435642e-001 3.311895e-001 1.571068e-004
		outer loop
			vertex -7.241506e-001 1.669848e+000 0.000000e+000
			vertex -5.023268e-001 2.301828e+000 0.000000e+000
			vertex -5.059335e-001 2.295347e+000 -7.999916e+000
		endloop
	endfacet
	facet normal -8.479044e-001 5.301490e-001 -4.720142e-005
		outer loop
			vertex -3.276881e-001 2.580427e+000 -7.999951e+000
			vertex -5.059335e-001 2.295347e+000 -7.999916e+000
			vertex -5.023268e-001 2.301828e+000 0.000000e+000
		endloop
	endfacet
	facet normal -8.479044e-001 5.301491e-001 1.273308e-004
		outer loop
			vertex -1.456679e-001 2.869623e+000 0.000000e+000
			vertex -1.494426e-001 2.865508e+000 -7.999987e+000
			vertex -3.276881e-001 2.580427e+000 -7.999951e+000
		endloop
	endfacet
	facet normal -8.467987e-001 5.319136e-001 3.838634e-005
		outer loop
			vertex -5.023268e-001 2.301828e+000 0.000000e+000
			vertex -1.456679e-001 2.869623e+000 0.000000e+000
			vertex -3.276881e-001 2.580427e+000 -7.999951e+000
		endloop
	endfacet
	facet normal -7.083781e-001 7.058331e-001 -2.888747e-005
		outer loop
			vertex 8.830357e-002 3.104111e+000 -7.999985e+000
			vertex -1.494426e-001 2.865508e+000 -7.999987e+000
			vertex -1.456679e-001 2.869623e+000 0.000000e+000
		endloop
	endfacet
	facet normal -7.083778e-001 7.058335e-001 6.224860e-005
		outer loop
			vertex 3.288020e-001 3.344771e+000 0.000000e+000
			vertex 3.260498e-001 3.342714e+000 -7.999984e+000
			vertex 8.830357e-002 3.104111e+000 -7.999985e+000
		endloop
	endfacet
	facet normal -7.076111e-001 7.066020e-001 1.608144e-005
		outer loop
			vertex -1.456679e-001 2.869623e+000 0.000000e+000
			vertex 3.288020e-001 3.344771e+000 0.000000e+000
			vertex 8.830357e-002 3.104111e+000 -7.999985e+000
		endloop
	endfacet
	facet normal -5.330310e-001 8.460957e-001 -3.413316e-005
		outer loop
			vertex 6.110162e-001 3.522240e+000 -7.999986e+000
			vertex 3.260498e-001 3.342714e+000 -7.999984e+000
			vertex 3.288020e-001 3.344771e+000 0.000000e+000
		endloop
	endfacet
	facet normal -5.330310e-001 8.460957e-001 5.040126e-005
		outer loop
			vertex 8.989591e-001 3.703164e+000 0.000000e+000
			vertex 8.959825e-001 3.701766e+000 -7.999990e+000
			vertex 6.110162e-001 3.522240e+000 -7.999986e+000
		endloop
	endfacet
	facet normal -5.321811e-001 8.466306e-001 7.713289e-006
		outer loop
			vertex 3.288020e-001 3.344771e+000 0.000000e+000
			vertex 8.989591e-001 3.703164e+000 0.000000e+000
			vertex 6.110162e-001 3.522240e+000 -7.999986e+000
		endloop
	endfacet
	facet normal -3.308677e-001 9.436771e-001 -4.187627e-005
		outer loop
			vertex 1.213666e+000 3.813150e+000 -7.999991e+000
			vertex 8.959825e-001 3.701766e+000 -7.999990e+000
			vertex 8.989591e-001 3.703164e+000 0.000000e+000
		endloop
	endfacet
	facet normal -3.308683e-001 9.436769e-001 6.853061e-005
		outer loop
			vertex 1.533505e+000 3.924710e+000 0.000000e+000
			vertex 1.531349e+000 3.924535e+000 -7.999992e+000
			vertex 1.213666e+000 3.813150e+000 -7.999991e+000
		endloop
	endfacet
	facet normal -3.296276e-001 9.441110e-001 1.287404e-005
		outer loop
			vertex 8.989591e-001 3.703164e+000 0.000000e+000
			vertex 1.533505e+000 3.924710e+000 0.000000e+000
			vertex 1.213666e+000 3.813150e+000 -7.999991e+000
		endloop
	endfacet
	facet normal -1.120861e-001 9.936985e-001 8.464100e-006
		outer loop
			vertex 1.865866e+000 3.962268e+000 -7.999995e+000
			vertex 1.531349e+000 3.924535e+000 -7.999992e+000
			vertex 1.533505e+000 3.924710e+000 0.000000e+000
		endloop
	endfacet
	facet normal -1.115659e-001 9.937570e-001 3.034928e-005
		outer loop
			vertex 1.533505e+000 3.924710e+000 0.000000e+000
			vertex 2.200000e+000 3.999535e+000 0.000000e+000
			vertex 1.865866e+000 3.962268e+000 -7.999995e+000
		endloop
	endfacet
	facet normal -1.120860e-001 9.936985e-001 5.234594e-005
		outer loop
			vertex 2.200384e+000 4.000000e+000 -7.999998e+000
			vertex 1.865866e+000 3.962268e+000 -7.999995e+000
			vertex 2.200000e+000 3.999535e+000 0.000000e+000
		endloop
	endfacet
	facet normal 1.123404e-001 9.936698e-001 -2.225281e-006
		outer loop
			vertex 2.866495e+000 3.924710e+000 0.000000e+000
			vertex 2.534892e+000 3.962182e+000 -7.999999e+000
			vertex 2.200384e+000 4.000000e+000 -7.999998e+000
		endloop
	endfacet
	facet normal 1.115659e-001 9.937570e-001 6.308290e-005
		outer loop
			vertex 2.200000e+000 3.999535e+000 0.000000e+000
			vertex 2.866495e+000 3.924710e+000 0.000000e+000
			vertex 2.200384e+000 4.000000e+000 -7.999998e+000
		endloop
	endfacet
	facet normal 1.123403e-001 9.936698e-001 -2.222039e-006
		outer loop
			vertex 2.869401e+000 3.924364e+000 -8.000000e+000
			vertex 2.534892e+000 3.962182e+000 -7.999999e+000
			vertex 2.866495e+000 3.924710e+000 0.000000e+000
		endloop
	endfacet
	facet normal 3.311127e-001 9.435912e-001 -5.277026e-005
		outer loop
			vertex 3.501041e+000 3.703164e+000 0.000000e+000
			vertex 3.187061e+000 3.812895e+000 -7.999999e+000
			vertex 2.869401e+000 3.924364e+000 -8.000000e+000
		endloop
	endfacet
	facet normal 3.296276e-001 9.441110e-001 7.885899e-005
		outer loop
			vertex 2.866495e+000 3.924710e+000 0.000000e+000
			vertex 3.501041e+000 3.703164e+000 0.000000e+000
			vertex 2.869401e+000 3.924364e+000 -8.000000e+000
		endloop
	endfacet
	facet normal 3.311113e-001 9.435917e-001 -5.270647e-005
		outer loop
			vertex 3.504721e+000 3.701426e+000 -7.999999e+000
			vertex 3.187061e+000 3.812895e+000 -7.999999e+000
			vertex 3.501041e+000 3.703164e+000 0.000000e+000
		endloop
	endfacet
	facet normal 5.332534e-001 8.459556e-001 -4.516016e-005
		outer loop
			vertex 4.071198e+000 3.344771e+000 0.000000e+000
			vertex 3.789647e+000 3.521821e+000 -7.999999e+000
			vertex 3.504721e+000 3.701426e+000 -7.999999e+000
		endloop
	endfacet
	facet normal 5.321811e-001 8.466306e-001 6.086318e-005
		outer loop
			vertex 3.501041e+000 3.703164e+000 0.000000e+000
			vertex 4.071198e+000 3.344771e+000 0.000000e+000
			vertex 3.504721e+000 3.701426e+000 -7.999999e+000
		endloop
	endfacet
	facet normal 5.332542e-001 8.459551e-001 -4.519979e-005
		outer loop
			vertex 4.074572e+000 3.342217e+000 -7.999998e+000
			vertex 3.789647e+000 3.521821e+000 -7.999999e+000
			vertex 4.071198e+000 3.344771e+000 0.000000e+000
		endloop
	endfacet
	facet normal 7.085598e-001 7.056508e-001 -3.924473e-005
		outer loop
			vertex 4.545668e+000 2.869623e+000 0.000000e+000
			vertex 4.312241e+000 3.103568e+000 -8.000000e+000
			vertex 4.074572e+000 3.342217e+000 -7.999998e+000
		endloop
	endfacet
	facet normal 7.076110e-001 7.066023e-001 7.283423e-005
		outer loop
			vertex 4.071198e+000 3.344771e+000 0.000000e+000
			vertex 4.545668e+000 2.869623e+000 0.000000e+000
			vertex 4.074572e+000 3.342217e+000 -7.999998e+000
		endloop
	endfacet
	facet normal 7.085594e-001 7.056512e-001 -3.922457e-005
		outer loop
			vertex 4.549909e+000 2.864921e+000 -8.000004e+000
			vertex 4.312241e+000 3.103568e+000 -8.000000e+000
			vertex 4.545668e+000 2.869623e+000 0.000000e+000
		endloop
	endfacet
	facet normal 8.480214e-001 5.299620e-001 -5.503346e-005
		outer loop
			vertex 4.902327e+000 2.301828e+000 0.000000e+000
			vertex 4.728044e+000 2.579877e+000 -7.999976e+000
			vertex 4.549909e+000 2.864921e+000 -8.000004e+000
		endloop
	endfacet
	facet normal 8.467987e-001 5.319135e-001 1.361904e-004
		outer loop
			vertex 4.545668e+000 2.869623e+000 0.000000e+000
			vertex 4.902327e+000 2.301828e+000 0.000000e+000
			vertex 4.549909e+000 2.864921e+000 -8.000004e+000
		endloop
	endfacet
	facet normal 8.480206e-001 5.299633e-001 -5.497021e-005
		outer loop
			vertex 4.906179e+000 2.294834e+000 -7.999949e+000
			vertex 4.728044e+000 2.579877e+000 -7.999976e+000
			vertex 4.902327e+000 2.301828e+000 0.000000e+000
		endloop
	endfacet
	facet normal 9.435642e-001 3.311895e-001 1.648242e-004
		outer loop
			vertex 4.902327e+000 2.301828e+000 0.000000e+000
			vertex 5.124151e+000 1.669848e+000 0.000000e+000
			vertex 4.906179e+000 2.294834e+000 -7.999949e+000
		endloop
	endfacet
	facet normal 9.445820e-001 3.282754e-001 -9.057309e-005
		outer loop
			vertex 5.125930e+000 1.662521e+000 -7.999830e+000
			vertex 4.906179e+000 2.294834e+000 -7.999949e+000
			vertex 5.124151e+000 1.669848e+000 0.000000e+000
		endloop
	endfacet
	facet normal 9.936501e-001 1.125145e-001 1.179532e-004
		outer loop
			vertex 5.124151e+000 1.669848e+000 0.000000e+000
			vertex 5.200000e+000 1.000000e+000 0.000000e+000
			vertex 5.125930e+000 1.662521e+000 -7.999830e+000
		endloop
	endfacet
	facet normal 9.938083e-001 1.111079e-001 -0.000000e+000
		outer loop
			vertex 5.200000e+000 1.000000e+000 -8.000000e+000
			vertex 5.125930e+000 1.662521e+000 -7.999830e+000
			vertex 5.200000e+000 1.000000e+000 0.000000e+000
		endloop
	endfacet
	facet normal 9.938034e-001 -1.111519e-001 1.155389e-004
		outer loop
			vertex 5.124151e+000 3.301518e-001 0.000000e+000
			vertex 5.125871e+000 3.372203e-001 -7.999772e+000
			vertex 5.200000e+000 1.000000e+000 -8.000000e+000
		endloop
	endfacet
	facet normal 9.936501e-001 -1.125144e-001 0.000000e+000
		outer loop
			vertex 5.200000e+000 1.000000e+000 0.000000e+000
			vertex 5.124151e+000 3.301518e-001 0.000000e+000
			vertex 5.200000e+000 1.000000e+000 -8.000000e+000
		endloop
	endfacet
	facet normal 9.445364e-001 -3.284068e-001 -8.701986e-005
		outer loop
			vertex 4.905934e+000 -2.953469e-001 -7.999916e+000
			vertex 5.125871e+000 3.372203e-001 -7.999772e+000
			vertex 5.124151e+000 3.301518e-001 0.000000e+000
		endloop
	endfacet
	facet normal 9.435642e-001 -3.311895e-001 1.570770e-004
		outer loop
			vertex 5.124151e+000 3.301518e-001 0.000000e+000
			vertex 4.902327e+000 -3.018278e-001 0.000000e+000
			vertex 4.905934e+000 -2.953469e-001 -7.999916e+000
		endloop
	endfacet
	facet normal 8.479046e-001 -5.301488e-001 -4.722967e-005
		outer loop
			vertex 4.727688e+000 -5.804274e-001 -7.999951e+000
			vertex 4.905934e+000 -2.953469e-001 -7.999916e+000
			vertex 4.902327e+000 -3.018278e-001 0.000000e+000
		endloop
	endfacet
	facet normal 8.479046e-001 -5.301488e-001 1.273233e-004
		outer loop
			vertex 4.545668e+000 -8.696236e-001 0.000000e+000
			vertex 4.549443e+000 -8.655078e-001 -7.999987e+000
			vertex 4.727688e+000 -5.804274e-001 -7.999951e+000
		endloop
	endfacet
	facet normal 8.467987e-001 -5.319135e-001 3.836829e-005
		outer loop
			vertex 4.902327e+000 -3.018278e-001 0.000000e+000
			vertex 4.545668e+000 -8.696236e-001 0.000000e+000
			vertex 4.727688e+000 -5.804274e-001 -7.999951e+000
		endloop
	endfacet
	facet normal 7.083780e-001 -7.058333e-001 -2.889410e-005
		outer loop
			vertex 4.311697e+000 -1.104111e+000 -7.999985e+000
			vertex 4.549443e+000 -8.655078e-001 -7.999987e+000
			vertex 4.545668e+000 -8.696236e-001 0.000000e+000
		endloop
	endfacet
	facet normal 7.083772e-001 -7.058341e-001 6.221479e-005
		outer loop
			vertex 4.071198e+000 -1.344771e+000 0.000000e+000
			vertex 4.073950e+000 -1.342714e+000 -7.999984e+000
			vertex 4.311697e+000 -1.104111e+000 -7.999985e+000
		endloop
	endfacet
	facet normal 7.076110e-001 -7.066022e-001 1.607424e-005
		outer loop
			vertex 4.545668e+000 -8.696236e-001 0.000000e+000
			vertex 4.071198e+000 -1.344771e+000 0.000000e+000
			vertex 4.311697e+000 -1.104111e+000 -7.999985e+000
		endloop
	endfacet
	facet normal 5.330316e-001 -8.460953e-001 -3.416714e-005
		outer loop
			vertex 3.788984e+000 -1.522240e+000 -7.999986e+000
			vertex 4.073950e+000 -1.342714e+000 -7.999984e+000
			vertex 4.071198e+000 -1.344771e+000 0.000000e+000
		endloop
	endfacet
	facet normal 5.330308e-001 -8.460959e-001 5.041346e-005
		outer loop
			vertex 3.501041e+000 -1.703164e+000 0.000000e+000
			vertex 3.504017e+000 -1.701766e+000 -7.999990e+000
			vertex 3.788984e+000 -1.522240e+000 -7.999986e+000
		endloop
	endfacet
	facet normal 5.321808e-001 -8.466307e-001 7.724782e-006
		outer loop
			vertex 4.071198e+000 -1.344771e+000 0.000000e+000
			vertex 3.501041e+000 -1.703164e+000 0.000000e+000
			vertex 3.788984e+000 -1.522240e+000 -7.999986e+000
		endloop
	endfacet
	facet normal 3.308681e-001 -9.436770e-001 -4.186238e-005
		outer loop
			vertex 3.186334e+000 -1.813150e+000 -7.999991e+000
			vertex 3.504017e+000 -1.701766e+000 -7.999990e+000
			vertex 3.501041e+000 -1.703164e+000 0.000000e+000
		endloop
	endfacet
	facet normal 3.308677e-001 -9.436771e-001 6.853528e-005
		outer loop
			vertex 2.866495e+000 -1.924710e+000 0.000000e+000
			vertex 2.868651e+000 -1.924535e+000 -7.999992e+000
			vertex 3.186334e+000 -1.813150e+000 -7.999991e+000
		endloop
	endfacet
	facet normal 3.296276e-001 -9.441110e-001 1.290272e-005
		outer loop
			vertex 3.501041e+000 -1.703164e+000 0.000000e+000
			vertex 2.866495e+000 -1.924710e+000 0.000000e+000
			vertex 3.186334e+000 -1.813150e+000 -7.999991e+000
		endloop
	endfacet
	facet normal 1.120861e-001 -9.936985e-001 8.465730e-006
		outer loop
			vertex 2.534134e+000 -1.962268e+000 -7.999995e+000
			vertex 2.868651e+000 -1.924535e+000 -7.999992e+000
			vertex 2.866495e+000 -1.924710e+000 0.000000e+000
		endloop
	endfacet
	facet normal 1.115659e-001 -9.937570e-001 3.035090e-005
		outer loop
			vertex 2.866495e+000 -1.924710e+000 0.000000e+000
			vertex 2.200000e+000 -1.999535e+000 0.000000e+000
			vertex 2.534134e+000 -1.962268e+000 -7.999995e+000
		endloop
	endfacet
	facet normal 1.120854e-001 -9.936986e-001 5.232032e-005
		outer loop
			vertex 2.199616e+000 -2.000000e+000 -7.999998e+000
			vertex 2.534134e+000 -1.962268e+000 -7.999995e+000
			vertex 2.200000e+000 -1.999535e+000 0.000000e+000
		endloop
	endfacet
	facet normal -1.123403e-001 -9.936698e-001 -2.247704e-006
		outer loop
			vertex 1.533505e+000 -1.924710e+000 0.000000e+000
			vertex 1.865107e+000 -1.962182e+000 -7.999999e+000
			vertex 2.199616e+000 -2.000000e+000 -7.999998e+000
		endloop
	endfacet
	facet normal -1.115659e-001 -9.937570e-001 6.305073e-005
		outer loop
			vertex 2.200000e+000 -1.999535e+000 0.000000e+000
			vertex 1.533505e+000 -1.924710e+000 0.000000e+000
			vertex 2.199616e+000 -2.000000e+000 -7.999998e+000
		endloop
	endfacet
	facet normal -1.123400e-001 -9.936698e-001 -2.236610e-006
		outer loop
			vertex 1.530599e+000 -1.924364e+000 -8.000000e+000
			vertex 1.865107e+000 -1.962182e+000 -7.999999e+000
			vertex 1.533505e+000 -1.924710e+000 0.000000e+000
		endloop
	endfacet
	facet normal -3.311117e-001 -9.435916e-001 -5.269493e-005
		outer loop
			vertex 8.989591e-001 -1.703164e+000 0.000000e+000
			vertex 1.212939e+000 -1.812895e+000 -7.999999e+000
			vertex 1.530599e+000 -1.924364e+000 -8.000000e+000
		endloop
	endfacet
	facet normal -3.296276e-001 -9.441110e-001 7.884524e-005
		outer loop
			vertex 1.533505e+000 -1.924710e+000 0.000000e+000
			vertex 8.989591e-001 -1.703164e+000 0.000000e+000
			vertex 1.530599e+000 -1.924364e+000 -8.000000e+000
		endloop
	endfacet
	facet normal -3.311118e-001 -9.435915e-001 -5.269968e-005
		outer loop
			vertex 8.952789e-001 -1.701426e+000 -7.999999e+000
			vertex 1.212939e+000 -1.812895e+000 -7.999999e+000
			vertex 8.989591e-001 -1.703164e+000 0.000000e+000
		endloop
	endfacet
	facet normal -5.332537e-001 -8.459554e-001 -4.520857e-005
		outer loop
			vertex 3.288020e-001 -1.344771e+000 0.000000e+000
			vertex 6.103533e-001 -1.521821e+000 -7.999999e+000
			vertex 8.952789e-001 -1.701426e+000 -7.999999e+000
		endloop
	endfacet
	facet normal -5.321808e-001 -8.466307e-001 6.086373e-005
		outer loop
			vertex 8.989591e-001 -1.703164e+000 0.000000e+000
			vertex 3.288020e-001 -1.344771e+000 0.000000e+000
			vertex 8.952789e-001 -1.701426e+000 -7.999999e+000
		endloop
	endfacet
	facet normal -5.332537e-001 -8.459554e-001 -4.520857e-005
		outer loop
			vertex 3.254277e-001 -1.342217e+000 -7.999998e+000
			vertex 6.103533e-001 -1.521821e+000 -7.999999e+000
			vertex 3.288020e-001 -1.344771e+000 0.000000e+000
		endloop
	endfacet
	facet normal -7.085597e-001 -7.056509e-001 -3.921262e-005
		outer loop
			vertex -1.456679e-001 -8.696236e-001 0.000000e+000
			vertex 8.775943e-002 -1.103569e+000 -8.000000e+000
			vertex 3.254277e-001 -1.342217e+000 -7.999998e+000
		endloop
	endfacet
	facet normal -7.076112e-001 -7.066020e-001 7.282929e-005
		outer loop
			vertex 3.288020e-001 -1.344771e+000 0.000000e+000
			vertex -1.456679e-001 -8.696236e-001 0.000000e+000
			vertex 3.254277e-001 -1.342217e+000 -7.999998e+000
		endloop
	endfacet
	facet normal -7.085599e-001 -7.056507e-001 -3.922269e-005
		outer loop
			vertex -1.499089e-001 -8.649204e-001 -8.000004e+000
			vertex 8.775943e-002 -1.103569e+000 -8.000000e+000
			vertex -1.456679e-001 -8.696236e-001 0.000000e+000
		endloop
	endfacet
	facet normal -8.480210e-001 -5.299626e-001 -5.496322e-005
		outer loop
			vertex -5.023268e-001 -3.018278e-001 0.000000e+000
			vertex -3.280441e-001 -5.798770e-001 -7.999976e+000
			vertex -1.499089e-001 -8.649204e-001 -8.000004e+000
		endloop
	endfacet
	facet normal -8.467987e-001 -5.319135e-001 1.361989e-004
		outer loop
			vertex -1.456679e-001 -8.696236e-001 0.000000e+000
			vertex -5.023268e-001 -3.018278e-001 0.000000e+000
			vertex -1.499089e-001 -8.649204e-001 -8.000004e+000
		endloop
	endfacet
	facet normal -8.480210e-001 -5.299627e-001 -5.496133e-005
		outer loop
			vertex -5.061792e-001 -2.948336e-001 -7.999949e+000
			vertex -3.280441e-001 -5.798770e-001 -7.999976e+000
			vertex -5.023268e-001 -3.018278e-001 0.000000e+000
		endloop
	endfacet
	facet normal -9.435642e-001 -3.311895e-001 1.648323e-004
		outer loop
			vertex -5.023268e-001 -3.018278e-001 0.000000e+000
			vertex -7.241506e-001 3.301518e-001 0.000000e+000
			vertex -5.061792e-001 -2.948336e-001 -7.999949e+000
		endloop
	endfacet
	facet normal -9.445821e-001 -3.282753e-001 -9.057179e-005
		outer loop
			vertex -7.259299e-001 3.374787e-001 -7.999830e+000
			vertex -5.061792e-001 -2.948336e-001 -7.999949e+000
			vertex -7.241506e-001 3.301518e-001 0.000000e+000
		endloop
	endfacet
	facet normal -9.936501e-001 -1.125147e-001 1.179534e-004
		outer loop
			vertex -7.241506e-001 3.301518e-001 0.000000e+000
			vertex -8.000000e-001 1.000000e+000 0.000000e+000
			vertex -7.259299e-001 3.374787e-001 -7.999830e+000
		endloop
	endfacet
	facet normal -9.938083e-001 -1.111081e-001 0.000000e+000
		outer loop
			vertex -8.000000e-001 1.000000e+000 -8.000000e+000
			vertex -7.259299e-001 3.374787e-001 -7.999830e+000
			vertex -8.000000e-001 1.000000e+000 0.000000e+000
		endloop
	endfacet
	facet normal -8.861973e-001 1.158453e-001 -4.485913e-001
		outer loop
			vertex -7.258713e-001 1.662780e+000 -7.999772e+000
			vertex 2.335631e-001 1.256753e+000 -1.000000e+001
			vertex 2.000000e-001 1.000000e+000 -1.000000e+001
		endloop
	endfacet
	facet normal -8.899714e-001 9.969216e-002 -4.449858e-001
		outer loop
			vertex -8.000000e-001 1.000000e+000 -8.000000e+000
			vertex -7.258713e-001 1.662780e+000 -7.999772e+000
			vertex 2.000000e-001 1.000000e+000 -1.000000e+001
		endloop
	endfacet
	facet normal -8.861974e-001 1.158452e-001 -4.485913e-001
		outer loop
			vertex 2.671263e-001 1.513505e+000 -1.000000e+001
			vertex 2.335631e-001 1.256753e+000 -1.000000e+001
			vertex -7.258713e-001 1.662780e+000 -7.999772e+000
		endloop
	endfacet
	facet normal -8.251728e-001 3.393444e-001 -4.515918e-001
		outer loop
			vertex -5.059335e-001 2.295347e+000 -7.999916e+000
			vertex 3.661999e-001 1.754419e+000 -1.000000e+001
			vertex 2.671263e-001 1.513505e+000 -1.000000e+001
		endloop
	endfacet
	facet normal -8.470657e-001 2.944166e-001 -4.424912e-001
		outer loop
			vertex -7.258713e-001 1.662780e+000 -7.999772e+000
			vertex -5.059335e-001 2.295347e+000 -7.999916e+000
			vertex 2.671263e-001 1.513505e+000 -1.000000e+001
		endloop
	endfacet
	facet normal -8.251728e-001 3.393444e-001 -4.515918e-001
		outer loop
			vertex 4.652735e-001 1.995333e+000 -1.000000e+001
			vertex 3.661999e-001 1.754419e+000 -1.000000e+001
			vertex -5.059335e-001 2.295347e+000 -7.999916e+000
		endloop
	endfacet
	facet normal -7.085270e-001 5.409747e-001 -4.531399e-001
		outer loop
			vertex -1.494426e-001 2.865508e+000 -7.999987e+000
			vertex 6.240463e-001 2.203282e+000 -1.000000e+001
			vertex 4.652735e-001 1.995333e+000 -1.000000e+001
		endloop
	endfacet
	facet normal -7.610564e-001 4.757922e-001 -4.409252e-001
		outer loop
			vertex -5.059335e-001 2.295347e+000 -7.999916e+000
			vertex -1.494426e-001 2.865508e+000 -7.999987e+000
			vertex 4.652735e-001 1.995333e+000 -1.000000e+001
		endloop
	endfacet
	facet normal -7.085274e-001 5.409743e-001 -4.531398e-001
		outer loop
			vertex 7.828189e-001 2.411230e+000 -1.000000e+001
			vertex 6.240463e-001 2.203282e+000 -1.000000e+001
			vertex -1.494426e-001 2.865508e+000 -7.999987e+000
		endloop
	endfacet
	facet normal -6.359853e-001 6.337041e-001 -4.403883e-001
		outer loop
			vertex -1.494426e-001 2.865508e+000 -7.999987e+000
			vertex 3.260498e-001 3.342714e+000 -7.999984e+000
			vertex 7.828189e-001 2.411230e+000 -1.000000e+001
		endloop
	endfacet
	facet normal -5.438847e-001 7.062844e-001 -4.531576e-001
		outer loop
			vertex 9.902624e-001 2.570975e+000 -1.000000e+001
			vertex 7.828189e-001 2.411230e+000 -1.000000e+001
			vertex 3.260498e-001 3.342714e+000 -7.999984e+000
		endloop
	endfacet
	facet normal -5.507444e-001 7.151922e-001 -4.303263e-001
		outer loop
			vertex 8.959825e-001 3.701766e+000 -7.999990e+000
			vertex 1.197706e+000 2.730720e+000 -1.000000e+001
			vertex 9.902624e-001 2.570975e+000 -1.000000e+001
		endloop
	endfacet
	facet normal -4.760924e-001 7.557071e-001 -4.497141e-001
		outer loop
			vertex 3.260498e-001 3.342714e+000 -7.999984e+000
			vertex 8.959825e-001 3.701766e+000 -7.999990e+000
			vertex 9.902624e-001 2.570975e+000 -1.000000e+001
		endloop
	endfacet
	facet normal -3.422453e-001 8.239324e-001 -4.516675e-001
		outer loop
			vertex 1.439394e+000 2.831113e+000 -1.000000e+001
			vertex 1.197706e+000 2.730720e+000 -1.000000e+001
			vertex 8.959825e-001 3.701766e+000 -7.999990e+000
		endloop
	endfacet
	facet normal -3.448465e-001 8.301929e-001 -4.380190e-001
		outer loop
			vertex 1.531349e+000 3.924535e+000 -7.999992e+000
			vertex 1.681083e+000 2.931505e+000 -1.000000e+001
			vertex 1.439394e+000 2.831113e+000 -1.000000e+001
		endloop
	endfacet
	facet normal -2.958551e-001 8.438122e-001 -4.477173e-001
		outer loop
			vertex 8.959825e-001 3.701766e+000 -7.999990e+000
			vertex 1.531349e+000 3.924535e+000 -7.999992e+000
			vertex 1.439394e+000 2.831113e+000 -1.000000e+001
		endloop
	endfacet
	facet normal -1.169439e-001 8.860123e-001 -4.486718e-001
		outer loop
			vertex 1.940550e+000 2.965752e+000 -1.000000e+001
			vertex 1.681083e+000 2.931505e+000 -1.000000e+001
			vertex 1.531349e+000 3.924535e+000 -7.999992e+000
		endloop
	endfacet
	facet normal -1.172423e-001 8.882673e-001 -4.441120e-001
		outer loop
			vertex 2.200384e+000 4.000000e+000 -7.999998e+000
			vertex 2.200017e+000 2.999999e+000 -1.000000e+001
			vertex 1.940550e+000 2.965752e+000 -1.000000e+001
		endloop
	endfacet
	facet normal -1.002845e-001 8.890386e-001 -4.467140e-001
		outer loop
			vertex 1.531349e+000 3.924535e+000 -7.999992e+000
			vertex 2.200384e+000 4.000000e+000 -7.999998e+000
			vertex 1.940550e+000 2.965752e+000 -1.000000e+001
		endloop
	endfacet
	facet normal 1.172627e-001 8.882479e-001 -4.441454e-001
		outer loop
			vertex 2.459511e+000 2.965742e+000 -1.000000e+001
			vertex 2.200017e+000 2.999999e+000 -1.000000e+001
			vertex 2.200384e+000 4.000000e+000 -7.999998e+000
		endloop
	endfacet
	facet normal 1.005066e-001 8.890142e-001 -4.467126e-001
		outer loop
			vertex 2.200384e+000 4.000000e+000 -7.999998e+000
			vertex 2.869401e+000 3.924364e+000 -8.000000e+000
			vertex 2.459511e+000 2.965742e+000 -1.000000e+001
		endloop
	endfacet
	facet normal 1.169685e-001 8.860195e-001 -4.486510e-001
		outer loop
			vertex 2.719006e+000 2.931485e+000 -1.000000e+001
			vertex 2.459511e+000 2.965742e+000 -1.000000e+001
			vertex 2.869401e+000 3.924364e+000 -8.000000e+000
		endloop
	endfacet
	facet normal 3.423075e-001 8.239109e-001 -4.516596e-001
		outer loop
			vertex 3.504721e+000 3.701426e+000 -7.999999e+000
			vertex 2.960741e+000 2.831052e+000 -1.000000e+001
			vertex 2.719006e+000 2.931485e+000 -1.000000e+001
		endloop
	endfacet
	facet normal 2.969435e-001 8.462176e-001 -4.424255e-001
		outer loop
			vertex 2.869401e+000 3.924364e+000 -8.000000e+000
			vertex 3.504721e+000 3.701426e+000 -7.999999e+000
			vertex 2.719006e+000 2.931485e+000 -1.000000e+001
		endloop
	endfacet
	facet normal 3.423084e-001 8.239105e-001 -4.516597e-001
		outer loop
			vertex 3.202477e+000 2.730618e+000 -1.000000e+001
			vertex 2.960741e+000 2.831052e+000 -1.000000e+001
			vertex 3.504721e+000 3.701426e+000 -7.999999e+000
		endloop
	endfacet
	facet normal 5.439736e-001 7.062156e-001 -4.531581e-001
		outer loop
			vertex 4.074572e+000 3.342217e+000 -7.999998e+000
			vertex 3.409941e+000 2.570816e+000 -1.000000e+001
			vertex 3.202477e+000 2.730618e+000 -1.000000e+001
		endloop
	endfacet
	facet normal 4.786275e-001 7.592937e-001 -4.408953e-001
		outer loop
			vertex 3.504721e+000 3.701426e+000 -7.999999e+000
			vertex 4.074572e+000 3.342217e+000 -7.999998e+000
			vertex 3.202477e+000 2.730618e+000 -1.000000e+001
		endloop
	endfacet
	facet normal 5.439740e-001 7.062153e-001 -4.531581e-001
		outer loop
			vertex 3.617404e+000 2.411013e+000 -1.000000e+001
			vertex 3.409941e+000 2.570816e+000 -1.000000e+001
			vertex 4.074572e+000 3.342217e+000 -7.999998e+000
		endloop
	endfacet
	facet normal 6.361464e-001 6.335411e-001 -4.403900e-001
		outer loop
			vertex 4.074572e+000 3.342217e+000 -7.999998e+000
			vertex 4.549909e+000 2.864921e+000 -8.000004e+000
			vertex 3.617404e+000 2.411013e+000 -1.000000e+001
		endloop
	endfacet
	facet normal 7.086093e-001 5.408646e-001 -4.531428e-001
		outer loop
			vertex 3.776147e+000 2.203038e+000 -1.000000e+001
			vertex 3.617404e+000 2.411013e+000 -1.000000e+001
			vertex 4.549909e+000 2.864921e+000 -8.000004e+000
		endloop
	endfacet
	facet normal 7.174716e-001 5.476297e-001 -4.305071e-001
		outer loop
			vertex 4.906179e+000 2.294834e+000 -7.999949e+000
			vertex 3.934890e+000 1.995063e+000 -1.000000e+001
			vertex 3.776147e+000 2.203038e+000 -1.000000e+001
		endloop
	endfacet
	facet normal 7.574590e-001 4.733235e-001 -4.496896e-001
		outer loop
			vertex 4.549909e+000 2.864921e+000 -8.000004e+000
			vertex 4.906179e+000 2.294834e+000 -7.999949e+000
			vertex 3.776147e+000 2.203038e+000 -1.000000e+001
		endloop
	endfacet
	facet normal 8.252044e-001 3.392631e-001 -4.515953e-001
		outer loop
			vertex 4.033914e+000 1.754203e+000 -1.000000e+001
			vertex 3.934890e+000 1.995063e+000 -1.000000e+001
			vertex 4.906179e+000 2.294834e+000 -7.999949e+000
		endloop
	endfacet
	facet normal 8.313506e-001 3.417899e-001 -4.382190e-001
		outer loop
			vertex 5.125930e+000 1.662521e+000 -7.999830e+000
			vertex 4.132938e+000 1.513343e+000 -1.000000e+001
			vertex 4.033914e+000 1.754203e+000 -1.000000e+001
		endloop
	endfacet
	facet normal 8.446567e-001 2.934634e-001 -4.476988e-001
		outer loop
			vertex 4.906179e+000 2.294834e+000 -7.999949e+000
			vertex 5.125930e+000 1.662521e+000 -7.999830e+000
			vertex 4.033914e+000 1.754203e+000 -1.000000e+001
		endloop
	endfacet
	facet normal 8.862050e-001 1.157731e-001 -4.485948e-001
		outer loop
			vertex 4.166469e+000 1.256671e+000 -1.000000e+001
			vertex 4.132938e+000 1.513343e+000 -1.000000e+001
			vertex 5.125930e+000 1.662521e+000 -7.999830e+000
		endloop
	endfacet
	facet normal 8.891312e-001 9.951989e-002 -4.467006e-001
		outer loop
			vertex 5.125930e+000 1.662521e+000 -7.999830e+000
			vertex 5.200000e+000 1.000000e+000 -8.000000e+000
			vertex 4.166469e+000 1.256671e+000 -1.000000e+001
		endloop
	endfacet
	facet normal 8.883832e-001 1.160561e-001 -4.441918e-001
		outer loop
			vertex 4.200000e+000 1.000000e+000 -1.000000e+001
			vertex 4.166469e+000 1.256671e+000 -1.000000e+001
			vertex 5.200000e+000 1.000000e+000 -8.000000e+000
		endloop
	endfacet
	facet normal 8.861974e-001 -1.158447e-001 -4.485912e-001
		outer loop
			vertex 5.125871e+000 3.372203e-001 -7.999772e+000
			vertex 4.166437e+000 7.432474e-001 -1.000000e+001
			vertex 4.200000e+000 1.000000e+000 -1.000000e+001
		endloop
	endfacet
	facet normal 8.899714e-001 -9.969206e-002 -4.449859e-001
		outer loop
			vertex 5.200000e+000 1.000000e+000 -8.000000e+000
			vertex 5.125871e+000 3.372203e-001 -7.999772e+000
			vertex 4.200000e+000 1.000000e+000 -1.000000e+001
		endloop
	endfacet
	facet normal 8.861974e-001 -1.158448e-001 -4.485912e-001
		outer loop
			vertex 4.132874e+000 4.864949e-001 -1.000000e+001
			vertex 4.166437e+000 7.432474e-001 -1.000000e+001
			vertex 5.125871e+000 3.372203e-001 -7.999772e+000
		endloop
	endfacet
	facet normal 8.251728e-001 -3.393444e-001 -4.515918e-001
		outer loop
			vertex 4.905934e+000 -2.953469e-001 -7.999916e+000
			vertex 4.033800e+000 2.455807e-001 -1.000000e+001
			vertex 4.132874e+000 4.864949e-001 -1.000000e+001
		endloop
	endfacet
	facet normal 8.470657e-001 -2.944168e-001 -4.424912e-001
		outer loop
			vertex 5.125871e+000 3.372203e-001 -7.999772e+000
			vertex 4.905934e+000 -2.953469e-001 -7.999916e+000
			vertex 4.132874e+000 4.864949e-001 -1.000000e+001
		endloop
	endfacet
	facet normal 8.251728e-001 -3.393445e-001 -4.515918e-001
		outer loop
			vertex 3.934727e+000 4.666630e-003 -1.000000e+001
			vertex 4.033800e+000 2.455807e-001 -1.000000e+001
			vertex 4.905934e+000 -2.953469e-001 -7.999916e+000
		endloop
	endfacet
	facet normal 7.085271e-001 -5.409746e-001 -4.531399e-001
		outer loop
			vertex 4.549443e+000 -8.655078e-001 -7.999987e+000
			vertex 3.775954e+000 -2.032818e-001 -1.000000e+001
			vertex 3.934727e+000 4.666630e-003 -1.000000e+001
		endloop
	endfacet
	facet normal 7.610565e-001 -4.757920e-001 -4.409252e-001
		outer loop
			vertex 4.905934e+000 -2.953469e-001 -7.999916e+000
			vertex 4.549443e+000 -8.655078e-001 -7.999987e+000
			vertex 3.934727e+000 4.666630e-003 -1.000000e+001
		endloop
	endfacet
	facet normal 7.085271e-001 -5.409747e-001 -4.531399e-001
		outer loop
			vertex 3.617181e+000 -4.112303e-001 -1.000000e+001
			vertex 3.775954e+000 -2.032818e-001 -1.000000e+001
			vertex 4.549443e+000 -8.655078e-001 -7.999987e+000
		endloop
	endfacet
	facet normal 6.359849e-001 -6.337044e-001 -4.403883e-001
		outer loop
			vertex 4.549443e+000 -8.655078e-001 -7.999987e+000
			vertex 4.073950e+000 -1.342714e+000 -7.999984e+000
			vertex 3.617181e+000 -4.112303e-001 -1.000000e+001
		endloop
	endfacet
	facet normal 5.438850e-001 -7.062842e-001 -4.531575e-001
		outer loop
			vertex 3.409738e+000 -5.709751e-001 -1.000000e+001
			vertex 3.617181e+000 -4.112303e-001 -1.000000e+001
			vertex 4.073950e+000 -1.342714e+000 -7.999984e+000
		endloop
	endfacet
	facet normal 5.507442e-001 -7.151923e-001 -4.303263e-001
		outer loop
			vertex 3.504017e+000 -1.701766e+000 -7.999990e+000
			vertex 3.202294e+000 -7.307200e-001 -1.000000e+001
			vertex 3.409738e+000 -5.709751e-001 -1.000000e+001
		endloop
	endfacet
	facet normal 4.760926e-001 -7.557071e-001 -4.497140e-001
		outer loop
			vertex 4.073950e+000 -1.342714e+000 -7.999984e+000
			vertex 3.504017e+000 -1.701766e+000 -7.999990e+000
			vertex 3.409738e+000 -5.709751e-001 -1.000000e+001
		endloop
	endfacet
	facet normal 3.422454e-001 -8.239323e-001 -4.516675e-001
		outer loop
			vertex 2.960606e+000 -8.311127e-001 -1.000000e+001
			vertex 3.202294e+000 -7.307200e-001 -1.000000e+001
			vertex 3.504017e+000 -1.701766e+000 -7.999990e+000
		endloop
	endfacet
	facet normal 3.448460e-001 -8.301930e-001 -4.380191e-001
		outer loop
			vertex 2.868651e+000 -1.924535e+000 -7.999992e+000
			vertex 2.718917e+000 -9.315053e-001 -1.000000e+001
			vertex 2.960606e+000 -8.311127e-001 -1.000000e+001
		endloop
	endfacet
	facet normal 2.958550e-001 -8.438122e-001 -4.477172e-001
		outer loop
			vertex 3.504017e+000 -1.701766e+000 -7.999990e+000
			vertex 2.868651e+000 -1.924535e+000 -7.999992e+000
			vertex 2.960606e+000 -8.311127e-001 -1.000000e+001
		endloop
	endfacet
	facet normal 1.169444e-001 -8.860122e-001 -4.486718e-001
		outer loop
			vertex 2.459450e+000 -9.657523e-001 -1.000000e+001
			vertex 2.718917e+000 -9.315053e-001 -1.000000e+001
			vertex 2.868651e+000 -1.924535e+000 -7.999992e+000
		endloop
	endfacet
	facet normal 1.172422e-001 -8.882673e-001 -4.441119e-001
		outer loop
			vertex 2.199616e+000 -2.000000e+000 -7.999998e+000
			vertex 2.199983e+000 -9.999993e-001 -1.000000e+001
			vertex 2.459450e+000 -9.657523e-001 -1.000000e+001
		endloop
	endfacet
	facet normal 1.002842e-001 -8.890387e-001 -4.467139e-001
		outer loop
			vertex 2.868651e+000 -1.924535e+000 -7.999992e+000
			vertex 2.199616e+000 -2.000000e+000 -7.999998e+000
			vertex 2.459450e+000 -9.657523e-001 -1.000000e+001
		endloop
	endfacet
	facet normal -1.172627e-001 -8.882480e-001 -4.441452e-001
		outer loop
			vertex 1.940489e+000 -9.657420e-001 -1.000000e+001
			vertex 2.199983e+000 -9.999993e-001 -1.000000e+001
			vertex 2.199616e+000 -2.000000e+000 -7.999998e+000
		endloop
	endfacet
	facet normal -1.005064e-001 -8.890143e-001 -4.467125e-001
		outer loop
			vertex 2.199616e+000 -2.000000e+000 -7.999998e+000
			vertex 1.530599e+000 -1.924364e+000 -8.000000e+000
			vertex 1.940489e+000 -9.657420e-001 -1.000000e+001
		endloop
	endfacet
	facet normal -1.169685e-001 -8.860196e-001 -4.486509e-001
		outer loop
			vertex 1.680994e+000 -9.314847e-001 -1.000000e+001
			vertex 1.940489e+000 -9.657420e-001 -1.000000e+001
			vertex 1.530599e+000 -1.924364e+000 -8.000000e+000
		endloop
	endfacet
	facet normal -3.423080e-001 -8.239107e-001 -4.516597e-001
		outer loop
			vertex 8.952789e-001 -1.701426e+000 -7.999999e+000
			vertex 1.439259e+000 -8.310515e-001 -1.000000e+001
			vertex 1.680994e+000 -9.314847e-001 -1.000000e+001
		endloop
	endfacet
	facet normal -2.969433e-001 -8.462177e-001 -4.424254e-001
		outer loop
			vertex 1.530599e+000 -1.924364e+000 -8.000000e+000
			vertex 8.952789e-001 -1.701426e+000 -7.999999e+000
			vertex 1.680994e+000 -9.314847e-001 -1.000000e+001
		endloop
	endfacet
	facet normal -3.423080e-001 -8.239107e-001 -4.516597e-001
		outer loop
			vertex 1.197523e+000 -7.306183e-001 -1.000000e+001
			vertex 1.439259e+000 -8.310515e-001 -1.000000e+001
			vertex 8.952789e-001 -1.701426e+000 -7.999999e+000
		endloop
	endfacet
	facet normal -5.439738e-001 -7.062154e-001 -4.531581e-001
		outer loop
			vertex 3.254277e-001 -1.342217e+000 -7.999998e+000
			vertex 9.900593e-001 -5.708159e-001 -1.000000e+001
			vertex 1.197523e+000 -7.306183e-001 -1.000000e+001
		endloop
	endfacet
	facet normal -4.786274e-001 -7.592939e-001 -4.408953e-001
		outer loop
			vertex 8.952789e-001 -1.701426e+000 -7.999999e+000
			vertex 3.254277e-001 -1.342217e+000 -7.999998e+000
			vertex 1.197523e+000 -7.306183e-001 -1.000000e+001
		endloop
	endfacet
	facet normal -5.439738e-001 -7.062154e-001 -4.531581e-001
		outer loop
			vertex 7.825955e-001 -4.110135e-001 -1.000000e+001
			vertex 9.900593e-001 -5.708159e-001 -1.000000e+001
			vertex 3.254277e-001 -1.342217e+000 -7.999998e+000
		endloop
	endfacet
	facet normal -6.361466e-001 -6.335409e-001 -4.403900e-001
		outer loop
			vertex 3.254277e-001 -1.342217e+000 -7.999998e+000
			vertex -1.499089e-001 -8.649204e-001 -8.000004e+000
			vertex 7.825955e-001 -4.110135e-001 -1.000000e+001
		endloop
	endfacet
	facet normal -7.086091e-001 -5.408649e-001 -4.531427e-001
		outer loop
			vertex 6.238527e-001 -2.030381e-001 -1.000000e+001
			vertex 7.825955e-001 -4.110135e-001 -1.000000e+001
			vertex -1.499089e-001 -8.649204e-001 -8.000004e+000
		endloop
	endfacet
	facet normal -7.174718e-001 -5.476294e-001 -4.305071e-001
		outer loop
			vertex -5.061792e-001 -2.948336e-001 -7.999949e+000
			vertex 4.651099e-001 4.937388e-003 -1.000000e+001
			vertex 6.238527e-001 -2.030381e-001 -1.000000e+001
		endloop
	endfacet
	facet normal -7.574590e-001 -4.733235e-001 -4.496895e-001
		outer loop
			vertex -1.499089e-001 -8.649204e-001 -8.000004e+000
			vertex -5.061792e-001 -2.948336e-001 -7.999949e+000
			vertex 6.238527e-001 -2.030381e-001 -1.000000e+001
		endloop
	endfacet
	facet normal -8.252044e-001 -3.392633e-001 -4.515952e-001
		outer loop
			vertex 3.660861e-001 2.457972e-001 -1.000000e+001
			vertex 4.651099e-001 4.937388e-003 -1.000000e+001
			vertex -5.061792e-001 -2.948336e-001 -7.999949e+000
		endloop
	endfacet
	facet normal -8.313506e-001 -3.417900e-001 -4.382189e-001
		outer loop
			vertex -7.259299e-001 3.374787e-001 -7.999830e+000
			vertex 2.670622e-001 4.866571e-001 -1.000000e+001
			vertex 3.660861e-001 2.457972e-001 -1.000000e+001
		endloop
	endfacet
	facet normal -8.446568e-001 -2.934633e-001 -4.476987e-001
		outer loop
			vertex -5.061792e-001 -2.948336e-001 -7.999949e+000
			vertex -7.259299e-001 3.374787e-001 -7.999830e+000
			vertex 3.660861e-001 2.457972e-001 -1.000000e+001
		endloop
	endfacet
	facet normal -8.862052e-001 -1.157723e-001 -4.485946e-001
		outer loop
			vertex 2.335311e-001 7.433285e-001 -1.000000e+001
			vertex 2.670622e-001 4.866571e-001 -1.000000e+001
			vertex -7.259299e-001 3.374787e-001 -7.999830e+000
		endloop
	endfacet
	facet normal -8.891312e-001 -9.952011e-002 -4.467005e-001
		outer loop
			vertex -7.259299e-001 3.374787e-001 -7.999830e+000
			vertex -8.000000e-001 1.000000e+000 -8.000000e+000
			vertex 2.335311e-001 7.433285e-001 -1.000000e+001
		endloop
	endfacet
	facet normal -8.883831e-001 -1.160569e-001 -4.441917e-001
		outer loop
			vertex 2.000000e-001 1.000000e+000 -1.000000e+001
			vertex 2.335311e-001 7.433285e-001 -1.000000e+001
			vertex -8.000000e-001 1.000000e+000 -8.000000e+000
		endloop
	endfacet
	facet normal 0.000000e+000 -8.320502e-001 5.547004e-001
		outer loop
			vertex 2.000000e-001 -1.500000e+000 5.000000e+001
			vertex 1.200000e+000 -2.500000e+000 4.850000e+001
			vertex 3.200000e+000 -2.500000e+000 4.850000e+001
		endloop
	endfacet
	facet normal 0.000000e+000 -8.320502e-001 5.547004e-001
		outer loop
			vertex 3.200000e+000 -1.500000e+000 5.000000e+001
			vertex 2.000000e-001 -1.500000e+000 5.000000e+001
			vertex 3.200000e+000 -2.500000e+000 4.850000e+001
		endloop
	endfacet
	facet normal 8.320501e-001 -0.000000e+000 5.547004e-001
		outer loop
			vertex 1.200000e+000 -5.000000e+000 4.850000e+001
			vertex 1.200000e+000 -2.500000e+000 4.850000e+001
			vertex 2.000000e-001 -4.000000e+000 5.000000e+001
		endloop
	endfacet
	facet normal 8.320501e-001 0.000000e+000 5.547004e-001
		outer loop
			vertex 2.000000e-001 -1.500000e+000 5.000000e+001
			vertex 2.000000e-001 -4.000000e+000 5.000000e+001
			vertex 1.200000e+000 -2.500000e+000 4.850000e+001
		endloop
	endfacet
	facet normal 0.000000e+000 -8.320503e-001 5.547003e-001
		outer loop
			vertex 1.200000e+000 -5.000000e+000 4.850000e+001
			vertex 2.000000e-001 -4.000000e+000 5.000000e+001
			vertex -2.800000e+000 -4.000000e+000 5.000000e+001
		endloop
	endfacet
	facet normal 0.000000e+000 -8.320503e-001 5.547003e-001
		outer loop
			vertex -3.800000e+000 -5.000000e+000 4.850000e+001
			vertex 1.200000e+000 -5.000000e+000 4.850000e+001
			vertex -2.800000e+000 -4.000000e+000 5.000000e+001
		endloop
	endfacet
	facet normal -8.320501e-001 0.000000e+000 5.547004e-001
		outer loop
			vertex -3.800000e+000 -5.000000e+000 4.850000e+001
			vertex -2.800000e+000 -4.000000e+000 5.000000e+001
			vertex -2.800000e+000 -1.000000e+000 5.000000e+001
		endloop
	endfacet
	facet normal -8.320501e-001 0.000000e+000 5.547004e-001
		outer loop
			vertex -3.800000e+000 1.451867e-015 4.850000e+001
			vertex -3.800000e+000 -5.000000e+000 4.850000e+001
			vertex -2.800000e+000 -1.000000e+000 5.000000e+001
		endloop
	endfacet
	facet normal 2.699901e-016 8.320501e-001 5.547004e-001
		outer loop
			vertex -1.300000e+000 6.406480e-016 4.850000e+001
			vertex -3.800000e+000 1.451867e-015 4.850000e+001
			vertex -2.800000e+000 -1.000000e+000 5.000000e+001
		endloop
	endfacet
	facet normal -0.000000e+000 8.320501e-001 5.547004e-001
		outer loop
			vertex -2.800000e+000 -1.000000e+000 5.000000e+001
			vertex -3.000000e-001 -1.000000e+000 5.000000e+001
			vertex -1.300000e+000 6.406480e-016 4.850000e+001
		endloop
	endfacet
	facet normal -8.320502e-001 0.000000e+000 5.547004e-001
		outer loop
			vertex -3.000000e-001 3.000000e+000 5.000000e+001
			vertex -1.300000e+000 2.000000e+000 4.850000e+001
			vertex -1.300000e+000 6.406480e-016 4.850000e+001
		endloop
	endfacet
	facet normal -8.320502e-001 0.000000e+000 5.547004e-001
		outer loop
			vertex -3.000000e-001 -1.000000e+000 5.000000e+001
			vertex -3.000000e-001 3.000000e+000 5.000000e+001
			vertex -1.300000e+000 6.406480e-016 4.850000e+001
		endloop
	endfacet
	facet normal 0.000000e+000 -8.320502e-001 5.547004e-001
		outer loop
			vertex -3.800000e+000 2.000000e+000 4.850000e+001
			vertex -1.300000e+000 2.000000e+000 4.850000e+001
			vertex -2.800000e+000 3.000000e+000 5.000000e+001
		endloop
	endfacet
	facet normal 0.000000e+000 -8.320502e-001 5.547004e-001
		outer loop
			vertex -3.000000e-001 3.000000e+000 5.000000e+001
			vertex -2.800000e+000 3.000000e+000 5.000000e+001
			vertex -1.300000e+000 2.000000e+000 4.850000e+001
		endloop
	endfacet
	facet normal -8.320501e-001 0.000000e+000 5.547004e-001
		outer loop
			vertex -3.800000e+000 2.000000e+000 4.850000e+001
			vertex -2.800000e+000 3.000000e+000 5.000000e+001
			vertex -2.800000e+000 6.000000e+000 5.000000e+001
		endloop
	endfacet
	facet normal -8.320501e-001 0.000000e+000 5.547004e-001
		outer loop
			vertex -3.800000e+000 7.000000e+000 4.850000e+001
			vertex -3.800000e+000 2.000000e+000 4.850000e+001
			vertex -2.800000e+000 6.000000e+000 5.000000e+001
		endloop
	endfacet
	facet normal 0.000000e+000 8.320501e-001 5.547004e-001
		outer loop
			vertex -3.800000e+000 7.000000e+000 4.850000e+001
			vertex -2.800000e+000 6.000000e+000 5.000000e+001
			vertex 2.000000e-001 6.000000e+000 5.000000e+001
		endloop
	endfacet
	facet normal 0.000000e+000 8.320501e-001 5.547004e-001
		outer loop
			vertex 1.200000e+000 7.000000e+000 4.850000e+001
			vertex -3.800000e+000 7.000000e+000 4.850000e+001
			vertex 2.000000e-001 6.000000e+000 5.000000e+001
		endloop
	endfacet
	facet normal 0.000000e+000 -8.320503e-001 5.547003e-001
		outer loop
			vertex 8.200000e+000 -5.000000e+000 4.850000e+001
			vertex 7.200000e+000 -4.000000e+000 5.000000e+001
			vertex 3.200000e+000 -4.000000e+000 5.000000e+001
		endloop
	endfacet
	facet normal 0.000000e+000 -8.320503e-001 5.547003e-001
		outer loop
			vertex 3.200000e+000 -5.000000e+000 4.850000e+001
			vertex 8.200000e+000 -5.000000e+000 4.850000e+001
			vertex 3.200000e+000 -4.000000e+000 5.000000e+001
		endloop
	endfacet
	facet normal 8.320501e-001 0.000000e+000 5.547004e-001
		outer loop
			vertex 8.200000e+000 -8.673617e-016 4.850000e+001
			vertex 7.200000e+000 -1.000000e+000 5.000000e+001
			vertex 7.200000e+000 -4.000000e+000 5.000000e+001
		endloop
	endfacet
	facet normal 8.320501e-001 -0.000000e+000 5.547004e-001
		outer loop
			vertex 8.200000e+000 -5.000000e+000 4.850000e+001
			vertex 8.200000e+000 -8.673617e-016 4.850000e+001
			vertex 7.200000e+000 -4.000000e+000 5.000000e+001
		endloop
	endfacet
	facet normal -0.000000e+000 8.320501e-001 5.547004e-001
		outer loop
			vertex 4.700000e+000 -1.000000e+000 5.000000e+001
			vertex 7.200000e+000 -1.000000e+000 5.000000e+001
			vertex 5.700000e+000 -2.008352e-015 4.850000e+001
		endloop
	endfacet
	facet normal -3.797444e-016 8.320501e-001 5.547004e-001
		outer loop
			vertex 8.200000e+000 -8.673617e-016 4.850000e+001
			vertex 5.700000e+000 -2.008352e-015 4.850000e+001
			vertex 7.200000e+000 -1.000000e+000 5.000000e+001
		endloop
	endfacet
	facet normal 8.320501e-001 0.000000e+000 5.547004e-001
		outer loop
			vertex 4.700000e+000 -1.000000e+000 5.000000e+001
			vertex 5.700000e+000 -2.008352e-015 4.850000e+001
			vertex 5.700000e+000 2.000000e+000 4.850000e+001
		endloop
	endfacet
	facet normal 8.320501e-001 0.000000e+000 5.547004e-001
		outer loop
			vertex 4.700000e+000 3.000000e+000 5.000000e+001
			vertex 4.700000e+000 -1.000000e+000 5.000000e+001
			vertex 5.700000e+000 2.000000e+000 4.850000e+001
		endloop
	endfacet
	facet normal 0.000000e+000 -8.320502e-001 5.547004e-001
		outer loop
			vertex 7.200000e+000 3.000000e+000 5.000000e+001
			vertex 4.700000e+000 3.000000e+000 5.000000e+001
			vertex 5.700000e+000 2.000000e+000 4.850000e+001
		endloop
	endfacet
	facet normal 0.000000e+000 -8.320502e-001 5.547004e-001
		outer loop
			vertex 5.700000e+000 2.000000e+000 4.850000e+001
			vertex 8.200000e+000 2.000000e+000 4.850000e+001
			vertex 7.200000e+000 3.000000e+000 5.000000e+001
		endloop
	endfacet
	facet normal 8.320501e-001 0.000000e+000 5.547004e-001
		outer loop
			vertex 8.200000e+000 7.000000e+000 4.850000e+001
			vertex 7.200000e+000 6.000000e+000 5.000000e+001
			vertex 7.200000e+000 3.000000e+000 5.000000e+001
		endloop
	endfacet
	facet normal 8.320501e-001 -0.000000e+000 5.547004e-001
		outer loop
			vertex 8.200000e+000 2.000000e+000 4.850000e+001
			vertex 8.200000e+000 7.000000e+000 4.850000e+001
			vertex 7.200000e+000 3.000000e+000 5.000000e+001
		endloop
	endfacet
	facet normal 0.000000e+000 8.320501e-001 5.547004e-001
		outer loop
			vertex 3.200000e+000 7.000000e+000 4.850000e+001
			vertex 4.200000e+000 6.000000e+000 5.000000e+001
			vertex 7.200000e+000 6.000000e+000 5.000000e+001
		endloop
	endfacet
	facet normal 0.000000e+000 8.320501e-001 5.547004e-001
		outer loop
			vertex 8.200000e+000 7.000000e+000 4.850000e+001
			vertex 3.200000e+000 7.000000e+000 4.850000e+001
			vertex 7.200000e+000 6.000000e+000 5.000000e+001
		endloop
	endfacet
	facet normal -8.320502e-001 0.000000e+000 5.547004e-001
		outer loop
			vertex 4.200000e+000 3.500000e+000 5.000000e+001
			vertex 4.200000e+000 6.000000e+000 5.000000e+001
			vertex 3.200000e+000 4.500000e+000 4.850000e+001
		endloop
	endfacet
	facet normal -8.320502e-001 0.000000e+000 5.547004e-001
		outer loop
			vertex 3.200000e+000 7.000000e+000 4.850000e+001
			vertex 3.200000e+000 4.500000e+000 4.850000e+001
			vertex 4.200000e+000 6.000000e+000 5.000000e+001
		endloop
	endfacet
	facet normal 0.000000e+000 8.320503e-001 5.547003e-001
		outer loop
			vertex 4.200000e+000 3.500000e+000 5.000000e+001
			vertex 3.200000e+000 4.500000e+000 4.850000e+001
			vertex 1.200000e+000 4.500000e+000 4.850000e+001
		endloop
	endfacet
	facet normal -0.000000e+000 8.320503e-001 5.547003e-001
		outer loop
			vertex 2.000000e-001 3.500000e+000 5.000000e+001
			vertex 4.200000e+000 3.500000e+000 5.000000e+001
			vertex 1.200000e+000 4.500000e+000 4.850000e+001
		endloop
	endfacet
	facet normal 8.320501e-001 0.000000e+000 5.547004e-001
		outer loop
			vertex 2.000000e-001 6.000000e+000 5.000000e+001
			vertex 2.000000e-001 3.500000e+000 5.000000e+001
			vertex 1.200000e+000 4.500000e+000 4.850000e+001
		endloop
	endfacet
	facet normal 8.320501e-001 -0.000000e+000 5.547004e-001
		outer loop
			vertex 1.200000e+000 4.500000e+000 4.850000e+001
			vertex 1.200000e+000 7.000000e+000 4.850000e+001
			vertex 2.000000e-001 6.000000e+000 5.000000e+001
		endloop
	endfacet
endsolid
